<?xml version="1.0" encoding="UTF-8" standalone="no"?>
<!DOCTYPE svg PUBLIC "-//W3C//DTD SVG 1.1//EN" "http://www.w3.org/Graphics/SVG/1.1/DTD/svg11.dtd">
<svg width="100%" height="100%" viewBox="0 0 123 99" version="1.1" xmlns="http://www.w3.org/2000/svg" xmlns:xlink="http://www.w3.org/1999/xlink" xml:space="preserve" xmlns:serif="http://www.serif.com/" style="fill-rule:evenodd;clip-rule:evenodd;stroke-linejoin:round;stroke-miterlimit:2;">
    <g transform="matrix(1,0,0,1,-2.42925,-14.6088)">
        <g transform="matrix(1.13996,0,0,1.13996,-9.63516,9.79502)">
            <path d="M52.3,18C62.3,17.1 65.2,10.7 76.9,9.7C82.7,9.2 86.3,10.4 86.7,12.4C87.1,14.3 84.2,15.6 80.8,15.9C76,16.4 74,14.7 73.6,13C70,13.4 69.5,14.9 69.7,16C70.1,18 74.4,20 81.8,19.4C90.1,18.7 92.9,15.5 92.3,12.1C91.4,7.8 85,4.2 73.5,5.3C58.7,6.6 58.8,13.5 48.7,14.3C44.6,14.7 42.3,13.7 41.9,12.1C41.6,10.5 43.6,9.7 46,9.5C48.2,9.3 50.9,9.7 52.1,10.4C53.1,9.9 53.3,9.4 53.3,8.9C52.9,7.4 49.8,6.7 46,7C38.5,7.7 38.5,11 38.8,12.5C39.4,16 45.2,18.6 52.3,18ZM31.6,27.5C40.8,29.8 52.6,31.1 66.8,31.1C81.3,31.1 92.8,29.9 102,27.5C111.8,25.2 116.5,22.1 116.5,19.2C116.5,17.1 114.4,15.1 110.6,13.5C111.5,14.1 112.1,15 112.1,16.1C112.1,19.1 107.7,21.5 98.8,23.5C90.5,25.3 80,26.6 67.1,26.6C54.7,26.6 43.7,25.4 35.7,23.6C27.2,21.5 22.6,19.2 22.6,16.2C22.6,15 23.2,13.9 24.9,12.6C19.5,14.7 16.6,16.4 16.6,19.1C17,22.2 21.8,25.2 31.6,27.5ZM17.5,73.9C21.3,76.9 25.5,77.7 30.2,76.9C32,76.6 34,75.7 35.9,75.1C32.1,75.1 28.8,73.9 25.5,71.3C21.9,68.7 19.6,65.1 19,60.6C18.1,56.5 19,52.6 21.3,49.3L22.9,47.5C24.2,50.7 25.7,53.9 27.3,56.8C30.9,62.2 34.4,66.9 38,72C39.5,75 40.6,77.9 41.3,80.9C43.6,84.2 47,86.4 51.1,87.6C56.2,89.4 61.5,90 66.8,90L67.4,90C72.8,90 78.4,89.3 83.6,87.6C87.4,86.4 90.7,84 93.1,81L93.4,81C94,78 94.9,75 96.4,72C100,66.9 103.5,62.2 107.1,56.8C111.8,48.3 115.1,38.5 116.9,28C115,30.7 110.6,33 102.6,34.8C93.4,36.9 81.6,38.3 67.4,38.3C52.9,38.3 41.1,36.8 31.9,34.7C23.6,32.6 19.2,30.3 17.7,27.9C18.5,33.3 19.8,38.5 21.6,43.5C19.5,44.8 17.6,46.5 15.9,48.6C12.6,52.7 11.2,57.5 11.5,62.2C11.8,66.9 13.9,70.9 17.5,73.9Z" style="fill:rgb(41,51,76);fill-rule:nonzero;"/>
            <path d="M93.523,81.868C93.887,81.817 94.186,81.541 94.26,81.172C94.841,78.267 95.709,75.36 97.153,72.455C100.746,67.366 104.238,62.674 107.83,57.287C107.843,57.266 107.856,57.246 107.868,57.224C112.613,48.643 115.947,38.749 117.765,28.148C117.834,27.744 117.614,27.346 117.235,27.189C116.856,27.033 116.419,27.16 116.183,27.495C114.358,30.089 110.092,32.215 102.407,33.944C102.407,33.944 102.406,33.945 102.405,33.945C93.256,36.033 81.521,37.423 67.4,37.423C52.985,37.423 41.253,35.934 32.105,33.847C27.234,32.614 23.732,31.319 21.395,29.966C19.96,29.135 18.985,28.301 18.444,27.435C18.224,27.083 17.787,26.933 17.397,27.077C17.007,27.22 16.771,27.618 16.832,28.029C17.606,33.25 18.842,38.287 20.541,43.138C18.596,44.433 16.821,46.068 15.218,48.048C15.218,48.049 15.217,48.049 15.217,48.05C11.77,52.332 10.311,57.347 10.625,62.256C10.94,67.204 13.149,71.416 16.938,74.574C16.944,74.579 16.95,74.584 16.956,74.589C20.964,77.752 25.39,78.608 30.347,77.765C32.181,77.459 34.225,76.549 36.164,75.937C36.577,75.806 36.833,75.394 36.767,74.966C36.701,74.539 36.333,74.223 35.9,74.223C32.297,74.223 29.172,73.076 26.043,70.611C26.033,70.603 26.024,70.596 26.014,70.589C22.613,68.133 20.436,64.735 19.87,60.484C19.866,60.46 19.862,60.436 19.857,60.412C19.016,56.582 19.851,52.938 21.987,49.849C21.991,49.843 22.626,49.129 22.626,49.129C23.808,51.923 25.132,54.687 26.532,57.224C26.544,57.245 26.557,57.266 26.57,57.287C30.162,62.674 33.653,67.365 37.244,72.45C38.697,75.365 39.765,78.184 40.446,81.099C40.471,81.208 40.517,81.31 40.58,81.402C42.99,84.859 46.543,87.177 50.838,88.437C56.019,90.263 61.409,90.877 66.8,90.877L67.4,90.877C72.89,90.877 78.582,90.163 83.869,88.435C87.698,87.225 91.043,84.85 93.523,81.868ZM92.683,81.505C92.825,81.338 92.964,81.17 93.1,81L93.4,81C94,78 94.9,75 96.4,72C100,66.9 103.5,62.2 107.1,56.8C111.8,48.3 115.1,38.5 116.9,28C115,30.7 110.6,33 102.6,34.8C93.4,36.9 81.6,38.3 67.4,38.3C52.9,38.3 41.1,36.8 31.9,34.7C23.6,32.6 19.2,30.3 17.7,27.9C18.5,33.3 19.8,38.5 21.6,43.5C19.5,44.8 17.6,46.5 15.9,48.6C12.6,52.7 11.2,57.5 11.5,62.2C11.8,66.9 13.9,70.9 17.5,73.9C21.3,76.9 25.5,77.7 30.2,76.9C32,76.6 34,75.7 35.9,75.1C32.1,75.1 28.8,73.9 25.5,71.3C21.9,68.7 19.6,65.1 19,60.6C18.1,56.5 19,52.6 21.3,49.3L22.9,47.5C24.2,50.7 25.7,53.9 27.3,56.8C30.9,62.2 34.4,66.9 38,72C39.5,75 40.6,77.9 41.3,80.9C43.6,84.2 47,86.4 51.1,87.6C56.2,89.4 61.5,90 66.8,90L67.4,90C72.8,90 78.4,89.3 83.6,87.6C87.111,86.491 90.196,84.358 92.538,81.673C92.692,81.803 92.89,81.877 93.1,81.877L93.057,81.807C92.928,81.752 92.812,81.667 92.722,81.556C92.708,81.539 92.695,81.522 92.683,81.505ZM31.393,28.353C40.648,30.666 52.517,31.977 66.8,31.977C81.389,31.977 92.96,30.764 102.218,28.35C108.248,26.934 112.392,25.198 114.748,23.411C116.562,22.036 117.377,20.575 117.377,19.2C117.377,18.172 116.987,17.156 116.196,16.191C115.157,14.923 113.383,13.72 110.94,12.692C110.524,12.516 110.042,12.686 109.827,13.085C109.613,13.483 109.737,13.979 110.113,14.23C110.765,14.665 111.223,15.303 111.223,16.1C111.223,17.058 110.598,17.898 109.468,18.713C107.41,20.199 103.792,21.479 98.611,22.643C90.36,24.432 79.923,25.723 67.1,25.723C54.781,25.723 43.851,24.534 35.901,22.746C30.948,21.522 27.349,20.249 25.269,18.779C24.132,17.976 23.477,17.156 23.477,16.2C23.477,15.217 24.04,14.362 25.433,13.297C25.78,13.031 25.879,12.551 25.665,12.17C25.451,11.789 24.989,11.624 24.582,11.782C21.792,12.867 19.653,13.858 18.207,14.917C16.535,16.141 15.723,17.488 15.723,19.1C15.723,19.138 15.725,19.175 15.73,19.212C15.915,20.643 16.86,22.093 18.714,23.443C21.186,25.242 25.363,26.937 31.393,28.353L31.393,28.353ZM31.6,27.5C40.8,29.8 52.6,31.1 66.8,31.1C81.3,31.1 92.8,29.9 102,27.5C111.8,25.2 116.5,22.1 116.5,19.2C116.5,17.1 114.4,15.1 110.6,13.5C111.5,14.1 112.1,15 112.1,16.1C112.1,19.1 107.7,21.5 98.8,23.5C90.5,25.3 80,26.6 67.1,26.6C54.7,26.6 43.7,25.4 35.7,23.6C27.2,21.5 22.6,19.2 22.6,16.2C22.6,15 23.2,13.9 24.9,12.6C19.5,14.7 16.6,16.4 16.6,19.1C17,22.2 21.8,25.2 31.6,27.5ZM52.374,18.874C52.375,18.874 52.377,18.874 52.379,18.874C57.52,18.411 60.841,16.551 64.376,14.661C67.724,12.871 71.277,11.061 76.975,10.574C76.975,10.574 76.975,10.574 76.975,10.574C80.266,10.29 82.81,10.556 84.399,11.246C85.192,11.591 85.726,12.005 85.84,12.572C85.84,12.575 85.841,12.578 85.842,12.581C85.933,13.014 85.655,13.358 85.246,13.667C84.271,14.405 82.573,14.863 80.723,15.026C80.718,15.027 80.714,15.027 80.709,15.027C76.603,15.455 74.796,14.253 74.454,12.799C74.352,12.367 73.944,12.079 73.503,12.128C70.934,12.414 69.739,13.274 69.208,14.116C68.778,14.797 68.722,15.522 68.837,16.157C68.838,16.162 68.839,16.167 68.84,16.172C69.039,17.168 69.94,18.24 71.63,19.028C73.757,20.022 77.229,20.651 81.871,20.274C81.872,20.274 81.873,20.274 81.874,20.274C90.979,19.506 93.822,15.677 93.164,11.948C93.162,11.938 93.161,11.929 93.159,11.92C92.755,9.994 91.399,8.166 89.053,6.777C85.8,4.851 80.563,3.744 73.42,4.426C65.813,5.095 62.037,7.207 58.863,9.25C55.89,11.163 53.493,13.04 48.631,13.426C48.625,13.426 48.62,13.426 48.615,13.427C46.726,13.611 45.251,13.491 44.204,13.122C43.426,12.849 42.911,12.461 42.76,11.92C42.696,11.516 42.98,11.256 43.365,11.041C44.038,10.666 45.013,10.462 46.073,10.374C46.075,10.374 46.077,10.374 46.079,10.374C48.089,10.191 50.562,10.518 51.658,11.158C51.914,11.307 52.227,11.317 52.492,11.185C53.97,10.446 54.177,9.639 54.177,8.9C54.177,8.824 54.167,8.748 54.148,8.674C53.928,7.852 53.184,7.128 51.956,6.674C50.523,6.144 48.362,5.934 45.931,6.125C45.927,6.126 45.923,6.126 45.918,6.127C41.807,6.51 39.783,7.689 38.796,8.895C37.685,10.253 37.753,11.73 37.938,12.661C38.219,14.277 39.414,15.764 41.324,16.879C43.929,18.397 47.904,19.252 52.374,18.874ZM52.3,18C62.3,17.1 65.2,10.7 76.9,9.7C82.7,9.2 86.3,10.4 86.7,12.4C87.1,14.3 84.2,15.6 80.8,15.9C76,16.4 74,14.7 73.6,13C70,13.4 69.5,14.9 69.7,16C70.1,18 74.4,20 81.8,19.4C90.1,18.7 92.9,15.5 92.3,12.1C91.4,7.8 85,4.2 73.5,5.3C58.7,6.6 58.8,13.5 48.7,14.3C44.6,14.7 42.3,13.7 41.9,12.1C41.6,10.5 43.6,9.7 46,9.5C48.2,9.3 50.9,9.7 52.1,10.4C53.1,9.9 53.3,9.4 53.3,8.9C52.9,7.4 49.8,6.7 46,7C38.5,7.7 38.5,11 38.8,12.5C39.4,16 45.2,18.6 52.3,18Z" style="fill:white;"/>
        </g>
    </g>
</svg>
