<?xml version="1.0" encoding="UTF-8" standalone="no"?>
<!DOCTYPE svg PUBLIC "-//W3C//DTD SVG 1.1//EN" "http://www.w3.org/Graphics/SVG/1.1/DTD/svg11.dtd">
<svg width="100%" height="100%" viewBox="0 0 121 97" version="1.1" xmlns="http://www.w3.org/2000/svg" xmlns:xlink="http://www.w3.org/1999/xlink" xml:space="preserve" xmlns:serif="http://www.serif.com/" style="fill-rule:evenodd;clip-rule:evenodd;stroke-linejoin:round;stroke-miterlimit:2;">
    <g transform="matrix(1,0,0,1,-3.42925,-15.6088)">
        <g transform="matrix(1.13996,0,0,1.13996,-9.63516,9.79502)">
            <path d="M52.3,18C62.3,17.1 65.2,10.7 76.9,9.7C82.7,9.2 86.3,10.4 86.7,12.4C87.1,14.3 84.2,15.6 80.8,15.9C76,16.4 74,14.7 73.6,13C70,13.4 69.5,14.9 69.7,16C70.1,18 74.4,20 81.8,19.4C90.1,18.7 92.9,15.5 92.3,12.1C91.4,7.8 85,4.2 73.5,5.3C58.7,6.6 58.8,13.5 48.7,14.3C44.6,14.7 42.3,13.7 41.9,12.1C41.6,10.5 43.6,9.7 46,9.5C48.2,9.3 50.9,9.7 52.1,10.4C53.1,9.9 53.3,9.4 53.3,8.9C52.9,7.4 49.8,6.7 46,7C38.5,7.7 38.5,11 38.8,12.5C39.4,16 45.2,18.6 52.3,18ZM31.6,27.5C40.8,29.8 52.6,31.1 66.8,31.1C81.3,31.1 92.8,29.9 102,27.5C111.8,25.2 116.5,22.1 116.5,19.2C116.5,17.1 114.4,15.1 110.6,13.5C111.5,14.1 112.1,15 112.1,16.1C112.1,19.1 107.7,21.5 98.8,23.5C90.5,25.3 80,26.6 67.1,26.6C54.7,26.6 43.7,25.4 35.7,23.6C27.2,21.5 22.6,19.2 22.6,16.2C22.6,15 23.2,13.9 24.9,12.6C19.5,14.7 16.6,16.4 16.6,19.1C17,22.2 21.8,25.2 31.6,27.5ZM17.5,73.9C21.3,76.9 25.5,77.7 30.2,76.9C32,76.6 34,75.7 35.9,75.1C32.1,75.1 28.8,73.9 25.5,71.3C21.9,68.7 19.6,65.1 19,60.6C18.1,56.5 19,52.6 21.3,49.3L22.9,47.5C24.2,50.7 25.7,53.9 27.3,56.8C30.9,62.2 34.4,66.9 38,72C39.5,75 40.6,77.9 41.3,80.9C43.6,84.2 47,86.4 51.1,87.6C56.2,89.4 61.5,90 66.8,90L67.4,90C72.8,90 78.4,89.3 83.6,87.6C87.4,86.4 90.7,84 93.1,81L93.4,81C94,78 94.9,75 96.4,72C100,66.9 103.5,62.2 107.1,56.8C111.8,48.3 115.1,38.5 116.9,28C115,30.7 110.6,33 102.6,34.8C93.4,36.9 81.6,38.3 67.4,38.3C52.9,38.3 41.1,36.8 31.9,34.7C23.6,32.6 19.2,30.3 17.7,27.9C18.5,33.3 19.8,38.5 21.6,43.5C19.5,44.8 17.6,46.5 15.9,48.6C12.6,52.7 11.2,57.5 11.5,62.2C11.8,66.9 13.9,70.9 17.5,73.9Z" style="fill:rgb(57,73,112);fill-rule:nonzero;"/>
        </g>
    </g>
</svg>
