<?xml version="1.0" encoding="UTF-8" standalone="no"?>
<!DOCTYPE svg PUBLIC "-//W3C//DTD SVG 1.1//EN" "http://www.w3.org/Graphics/SVG/1.1/DTD/svg11.dtd">
<svg width="100%" height="100%" viewBox="0 0 64 64" version="1.1" xmlns="http://www.w3.org/2000/svg" xmlns:xlink="http://www.w3.org/1999/xlink" xml:space="preserve" xmlns:serif="http://www.serif.com/" style="fill-rule:evenodd;clip-rule:evenodd;stroke-linejoin:round;stroke-miterlimit:2;">
    <g transform="matrix(0.159929,0,0,0.159929,-1.10179,35.0335)">
        <g transform="matrix(1.25,0,0,-1.25,-271.153,934.213)">
            <g>
                <clipPath id="_clip1">
                    <path d="M333.652,804.034C345.188,768.742 349.564,705.782 383.312,705.782C385.88,705.782 388.476,706.034 391.084,706.53C360.404,713.682 356.764,775.958 338.044,808.206C336.551,806.846 335.086,805.455 333.65,804.034"/>
                </clipPath>
                <g clip-path="url(#_clip1)">
                    <g>
                        <g>
                            <clipPath id="_clip2">
                                <path d="M390.968,808.186L390.968,705.76L333.536,705.76L333.536,808.184L390.968,808.184L390.968,808.186Z"/>
                            </clipPath>
                            <g clip-path="url(#_clip2)">
                                <rect x="333.536" y="705.76" width="57.432" height="102.424" style="fill:url(#_Linear3);fill-rule:nonzero;"/>
                            </g>
                        </g>
                    </g>
                </g>
            </g>
            <g>
                <clipPath id="_clip4">
                    <path d="M338.046,808.206C356.766,775.958 360.402,713.682 391.086,706.53C393.492,706.974 395.912,707.642 398.332,708.49C370.792,721.984 363.18,782.45 341.922,811.564C340.634,810.492 339.322,809.374 338.048,808.208"/>
                </clipPath>
                <g clip-path="url(#_clip4)">
                    <g>
                        <g>
                            <rect x="338.234" y="706.392" width="60.28" height="105.034" style="fill:url(#_Linear5);fill-rule:nonzero;"/>
                        </g>
                    </g>
                </g>
            </g>
        </g>
        <path d="M185.12,-100C181.916,-100 178.66,-99.688 175.4,-99.064C166.866,-97.456 158.192,-93.784 149.45,-88.22C151.84,-85.86 154.11,-83.168 156.244,-80.22C165.134,-87.62 173.964,-93.052 182.77,-96.33C185.983,-97.531 189.294,-98.451 192.666,-99.08C190.199,-99.7 187.664,-100.009 185.12,-100" style="fill:rgb(20,85,154);fill-rule:nonzero;"/>
        <g transform="matrix(1.25,0,0,-1.25,-271.153,934.213)">
            <g>
                <clipPath id="_clip6">
                    <path d="M371.056,827.336L428.37,827.336L428.37,720.92L371.056,720.92L371.056,827.336Z"/>
                </clipPath>
                <g clip-path="url(#_clip6)">
                    <g>
                        <clipPath id="_clip7">
                            <rect x="371.064" y="720.924" width="57.2" height="106.412"/>
                        </clipPath>
                        <g clip-path="url(#_clip7)">
                            <g>
                                <clipPath id="_clip8">
                                    <path d="M419.824,720.924L428.294,728.324C416.566,763.452 412.368,827.316 378.384,827.316C375.925,827.315 373.472,827.086 371.056,826.63C402.01,818.938 405.976,751.584 419.824,720.904"/>
                                </clipPath>
                                <g clip-path="url(#_clip8)">
                                    <g>
                                        <clipPath id="_clip9">
                                            <path d="M371.132,827.332L428.372,827.332L428.372,720.92L371.132,720.92L371.132,827.332Z"/>
                                        </clipPath>
                                        <g clip-path="url(#_clip9)">
                                            <g>
                                                <clipPath id="_clip10">
                                                    <rect x="371.132" y="720.92" width="57.24" height="106.41"/>
                                                </clipPath>
                                                <g clip-path="url(#_clip10)">
                                                    <path d="M371.132,827.332L428.372,827.332L428.372,720.92L371.132,720.92L371.132,827.332Z" style="fill:url(#_Linear11);fill-rule:nonzero;"/>
                                                </g>
                                            </g>
                                        </g>
                                    </g>
                                </g>
                            </g>
                        </g>
                    </g>
                </g>
            </g>
        </g>
        <g transform="matrix(1.25,0,0,-1.25,-271.153,934.213)">
            <g>
                <clipPath id="_clip12">
                    <rect x="365" y="826.65" width="13.364" height="0.734"/>
                </clipPath>
                <g clip-path="url(#_clip12)">
                    <g>
                        <clipPath id="_clip13">
                            <rect x="365.04" y="826.65" width="13.336" height="0.734"/>
                        </clipPath>
                        <g clip-path="url(#_clip13)">
                            <path d="M371.056,826.65C369.148,827.134 367.142,827.384 365.02,827.384L378.384,827.336C375.925,827.335 373.472,827.106 371.056,826.65" style="fill:rgb(48,146,196);fill-rule:nonzero;"/>
                        </g>
                    </g>
                </g>
            </g>
        </g>
        <path d="M252.884,42.388C251.224,40.8 249.648,39.068 248.096,37.188C240.956,42.248 233.832,46.088 226.756,48.58C229.28,49.819 231.952,50.73 234.708,51.29C236.876,51.738 239.108,51.962 241.508,51.962C249.444,51.962 255.716,51.016 261.06,48.462C258.12,46.87 255.42,44.81 252.9,42.368" style="fill:rgb(25,105,188);fill-rule:nonzero;"/>
        <g transform="matrix(1.25,0,0,-1.25,-271.153,934.213)">
            <g>
                <clipPath id="_clip14">
                    <path d="M363.14,824.444C390.866,809.944 393.274,744.272 415.4,717.604C416.88,718.648 418.35,719.756 419.8,720.924C405.954,751.604 401.99,818.964 371.04,826.65C368.396,826.158 365.76,825.45 363.12,824.444"/>
                </clipPath>
                <g clip-path="url(#_clip14)">
                    <g>
                        <g>
                            <rect x="363.284" y="717.468" width="56.68" height="109.052" style="fill:url(#_Linear15);fill-rule:nonzero;"/>
                        </g>
                    </g>
                </g>
            </g>
            <g>
                <clipPath id="_clip16">
                    <path d="M341.92,811.56C363.18,782.448 370.79,721.96 398.33,708.486C403.99,710.482 409.686,713.55 415.4,717.6C393.274,744.27 390.866,809.94 363.14,824.44C356.1,821.824 349.032,817.464 341.94,811.56"/>
                </clipPath>
                <g clip-path="url(#_clip16)">
                    <g>
                        <g>
                            <clipPath id="_clip17">
                                <rect x="341.886" y="708.454" width="73.48" height="115.96"/>
                            </clipPath>
                            <g clip-path="url(#_clip17)">
                                <rect x="341.886" y="708.456" width="73.48" height="115.96" style="fill:url(#_Linear18);fill-rule:nonzero;"/>
                            </g>
                        </g>
                    </g>
                </g>
            </g>
        </g>
        <g transform="matrix(1.25,0,0,-1.25,-271.153,934.213)">
            <g>
                <clipPath id="_clip19">
                    <rect x="309.194" y="774.52" width="24.454" height="38.94"/>
                </clipPath>
                <g clip-path="url(#_clip19)">
                    <g>
                        <clipPath id="_clip20">
                            <rect x="309.21" y="774.52" width="24.412" height="38.944"/>
                        </clipPath>
                        <g clip-path="url(#_clip20)">
                            <path d="M320.048,804.88C316.712,797.35 313.314,787.446 309.194,774.516C317.382,786.046 325.54,795.986 333.648,804.032C332.528,807.466 331.334,810.636 330.042,813.458C326.722,810.918 323.382,808.058 320.048,804.858" style="fill:rgb(51,189,242);fill-rule:nonzero;"/>
                        </g>
                    </g>
                </g>
            </g>
        </g>
        <path d="M145.086,-85.328L141.4,-82.612C143.016,-79.084 144.51,-75.122 145.908,-70.812L151.408,-76.028C149.442,-79.4 147.36,-82.52 145.088,-85.308" style="fill:rgb(43,116,177);fill-rule:nonzero;"/>
        <path d="M149.452,-88.24L145.086,-85.33C147.352,-82.54 149.438,-79.42 151.406,-76.05L156.246,-80.244C154.106,-83.19 151.842,-85.884 149.452,-88.244" style="fill:rgb(18,90,158);fill-rule:nonzero;"/>
        <g transform="matrix(1.25,0,0,-1.25,-271.153,934.213)">
            <g>
                <g>
                    <clipPath id="_clip21">
                        <rect x="443.008" y="705.808" width="99.652" height="124.264"/>
                    </clipPath>
                    <g clip-path="url(#_clip21)">
                        <g>
                            <clipPath id="_clip22">
                                <path d="M525.612,830.072C509.932,769.6 477.172,721.022 449.712,708.776C449.696,708.764 449.672,708.756 449.666,708.756C449.175,708.536 448.681,708.325 448.182,708.124C448.118,708.104 448.058,708.076 447.982,708.052C447.842,707.992 447.702,707.948 447.582,707.892C447.516,707.876 447.454,707.842 447.396,707.818L446.706,707.572C446.61,707.542 446.516,707.506 446.426,707.476C446.32,707.448 446.226,707.4 446.086,707.364C445.986,707.32 445.876,707.29 445.76,707.248C445.66,707.218 445.556,707.194 445.468,707.152C445.268,707.092 445.08,707.044 444.88,706.978C444.794,706.958 444.72,706.928 444.632,706.908C444.508,706.872 444.366,706.838 444.236,706.802C444.14,706.778 444.064,706.752 443.968,706.732C443.828,706.686 443.672,706.652 443.536,706.616L443.008,706.506C444.264,706.039 445.595,705.803 446.936,705.812C472.98,705.812 499.23,752.478 542.676,830.076L525.616,830.076L525.612,830.072Z"/>
                            </clipPath>
                            <g clip-path="url(#_clip22)">
                                <g>
                                    <g>
                                        <clipPath id="_clip23">
                                            <rect x="442.916" y="705.87" width="99.66" height="124.266"/>
                                        </clipPath>
                                        <g clip-path="url(#_clip23)">
                                            <rect x="442.914" y="705.872" width="99.66" height="124.264" style="fill:url(#_Linear24);fill-rule:nonzero;"/>
                                        </g>
                                    </g>
                                </g>
                            </g>
                        </g>
                    </g>
                </g>
            </g>
        </g>
        <g transform="matrix(1.25,0,0,-1.25,-271.153,934.213)">
            <g>
                <clipPath id="_clip25">
                    <path d="M222.4,827.384L313.104,827.384L313.104,702.52L222.4,702.52L222.4,827.386L222.4,827.384Z"/>
                </clipPath>
                <g clip-path="url(#_clip25)">
                    <g>
                        <clipPath id="_clip26">
                            <rect x="222.434" y="702.52" width="90.694" height="124.868"/>
                        </clipPath>
                        <g clip-path="url(#_clip26)">
                            <path d="M303.54,824.932C303.556,824.948 303.58,824.958 303.588,824.958C303.607,824.967 303.627,824.974 303.648,824.98L304.104,825.156C304.14,825.164 304.16,825.176 304.184,825.184C304.22,825.197 304.254,825.213 304.288,825.23L304.748,825.39L305.748,825.75C305.8,825.75 305.848,825.774 305.898,825.79L306.328,825.92C306.394,825.944 306.464,825.956 306.524,825.98L306.956,826.106L307.122,826.156L308.556,826.524L308.748,826.574L309.164,826.654L309.37,826.714L309.77,826.794C309.806,826.794 309.83,826.804 309.87,826.81L310.74,826.964C310.798,826.976 310.857,826.983 310.916,826.986L311.312,827.056L311.54,827.08L311.926,827.136C311.997,827.139 312.068,827.148 312.138,827.162L313.078,827.246L310.308,827.386C280.98,827.386 240.582,772.98 222.378,702.52L225.886,702.536C231.716,712.92 236.946,722.748 241.726,731.972C254.476,781.878 280.436,815.916 303.494,824.932" style="fill:rgb(5,161,230);fill-rule:nonzero;"/>
                        </g>
                    </g>
                </g>
            </g>
        </g>
        <g>
            <path d="M128.906,-71.89C133.074,-75.864 137.246,-79.44 141.398,-82.61L138.398,-88.356C135.046,-84.288 131.986,-78.92 128.886,-71.888" style="fill:rgb(13,130,202);fill-rule:nonzero;"/>
            <path d="M131.916,-96.44C134.316,-94.432 136.456,-91.67 138.416,-88.36L140.306,-90.48C137.586,-93.02 134.646,-95.108 131.446,-96.68L131.842,-96.492C131.862,-96.466 131.886,-96.452 131.912,-96.442" style="fill:rgb(13,130,202);fill-rule:nonzero;"/>
        </g>
        <g transform="matrix(1.25,0,0,-1.25,-271.153,934.213)">
            <clipPath id="_clip27">
                <path d="M241.772,731.97C268.512,783.496 281.182,816.11 303.54,824.93C280.488,815.906 254.54,781.874 241.772,731.97"/>
            </clipPath>
            <g clip-path="url(#_clip27)">
                <g>
                    <clipPath id="_clip28">
                        <path d="M241.74,824.866L303.51,824.866L303.51,731.9L241.74,731.9L241.74,824.866Z"/>
                    </clipPath>
                    <g clip-path="url(#_clip28)">
                        <g>
                            <clipPath id="_clip29">
                                <rect x="241.74" y="731.904" width="61.77" height="92.96"/>
                            </clipPath>
                            <g clip-path="url(#_clip29)">
                                <path d="M241.74,824.866L303.51,824.866L303.51,731.9L241.74,731.9L241.74,824.866Z" style="fill:url(#_Linear30);fill-rule:nonzero;"/>
                            </g>
                        </g>
                    </g>
                </g>
            </g>
        </g>
        <path d="M140.31,-90.48L138.42,-88.36C139.47,-86.604 140.446,-84.69 141.42,-82.614L145.108,-85.33C143.637,-87.156 142.04,-88.877 140.328,-90.48" style="fill:rgb(18,123,202);fill-rule:nonzero;"/>
        <g transform="matrix(1.25,0,0,-1.25,-271.153,934.213)">
            <g>
                <g>
                    <clipPath id="_clip31">
                        <path d="M251.77,774.52L309.214,774.52L309.214,702.6L251.77,702.6L251.77,774.54L251.77,774.52Z"/>
                    </clipPath>
                    <g clip-path="url(#_clip31)">
                        <g>
                            <clipPath id="_clip32">
                                <rect x="251.79" y="702.6" width="57.4" height="71.94"/>
                            </clipPath>
                            <g clip-path="url(#_clip32)">
                                <g>
                                    <clipPath id="_clip33">
                                        <path d="M253.912,702.764L253.428,702.708C253.388,702.7 253.364,702.7 253.334,702.694L252.922,702.654C252.902,702.654 252.876,702.648 252.856,702.648L251.87,702.578L251.77,702.578C278.834,703.338 291.206,716.886 297.34,736.538L309.2,774.538C297.864,758.584 286.476,739.57 275.026,718.258C269.506,707.988 261.106,703.698 253.912,702.784"/>
                                    </clipPath>
                                    <g clip-path="url(#_clip33)">
                                        <g>
                                            <g>
                                                <clipPath id="_clip34">
                                                    <rect x="251.786" y="702.574" width="57.428" height="71.94"/>
                                                </clipPath>
                                                <g clip-path="url(#_clip34)">
                                                    <rect x="251.788" y="702.576" width="57.428" height="71.94" style="fill:url(#_Linear35);fill-rule:nonzero;"/>
                                                </g>
                                            </g>
                                        </g>
                                    </g>
                                </g>
                            </g>
                        </g>
                    </g>
                </g>
            </g>
            <g>
                <clipPath id="_clip36">
                    <path d="M253.912,702.774L253.912,702.764C261.108,703.68 269.508,707.964 275.026,718.238C286.476,739.538 297.87,758.564 309.19,774.518C313.314,787.454 316.71,797.352 320.05,804.882C297.478,783.398 274.816,747.67 253.914,702.774"/>
                </clipPath>
                <g clip-path="url(#_clip36)">
                    <g>
                        <g>
                            <rect x="254.056" y="702.614" width="66.136" height="102.12" style="fill:url(#_Linear37);fill-rule:nonzero;"/>
                        </g>
                    </g>
                </g>
            </g>
        </g>
        <path d="M31.06,19.25C25.06,30.78 18.534,43.064 11.26,56.046L24.016,56.042C25.702,43.15 28.096,30.852 31.064,19.252" style="fill:rgb(5,161,230);fill-rule:nonzero;"/>
        <g transform="matrix(1.25,0,0,-1.25,-271.153,934.213)">
            <g>
                <clipPath id="_clip38">
                    <path d="M312.2,827.16C312.12,827.144 312.06,827.14 312,827.134C311.88,827.11 311.75,827.088 311.624,827.078L311.398,827.054L310.998,826.984C310.934,826.98 310.872,826.968 310.822,826.964L309.952,826.81C309.916,826.804 309.88,826.794 309.852,826.794L309.452,826.714L309.24,826.654L308.83,826.574L308.638,826.528L307.204,826.156C307.164,826.14 307.098,826.128 307.038,826.106C306.898,826.072 306.758,826.022 306.606,825.974L306.41,825.92L305.98,825.79C305.928,825.776 305.88,825.75 305.83,825.75L304.836,825.406L304.356,825.234L304.164,825.154C304.02,825.114 303.872,825.054 303.764,825.004C303.718,824.98 303.66,824.96 303.624,824.934C281.264,816.11 268.596,783.498 241.856,731.974C239.385,722.286 237.502,712.457 236.218,702.542L237.652,702.542L250.978,702.562L251.104,702.562L251.954,702.582L252.94,702.652C252.96,702.652 252.986,702.658 253,702.658C253.14,702.678 253.28,702.688 253.412,702.698C253.448,702.704 253.468,702.704 253.512,702.712C253.658,702.726 253.832,702.744 253.996,702.768L253.996,702.778C274.896,747.674 297.56,783.402 320.132,804.886C322.616,810.512 325.06,814.806 327.742,818.056C326.172,820.708 324.458,822.916 322.542,824.528C322.522,824.538 322.502,824.544 322.486,824.564C322.382,824.608 322.276,824.658 322.17,824.714C322.066,824.771 321.961,824.825 321.854,824.876C321.754,824.916 321.642,824.97 321.546,825.026C321.421,825.067 321.3,825.12 321.186,825.186C321.086,825.218 321,825.266 320.906,825.306C320.706,825.383 320.508,825.465 320.312,825.552L320.06,825.652C319.91,825.702 319.763,825.76 319.62,825.826C319.544,825.846 319.464,825.878 319.38,825.902C319.168,825.972 318.968,826.048 318.772,826.114C318.738,826.124 318.726,826.124 318.718,826.134C318.478,826.208 318.248,826.268 318.008,826.334C317.952,826.36 317.908,826.37 317.848,826.386C317.636,826.442 317.448,826.502 317.256,826.554C317.206,826.56 317.156,826.574 317.116,826.586C316.625,826.715 316.128,826.824 315.628,826.912C315.582,826.916 315.522,826.932 315.472,826.944L314.828,827.044C314.788,827.064 314.748,827.064 314.702,827.072L313.936,827.172C313.896,827.178 313.852,827.188 313.802,827.188C313.602,827.22 313.41,827.234 313.218,827.252C312.892,827.228 312.586,827.198 312.278,827.168"/>
                </clipPath>
                <g clip-path="url(#_clip38)">
                    <g>
                        <clipPath id="_clip39">
                            <path d="M238.626,686.9L214.54,823.5L324.628,842.91L348.714,706.31L238.626,686.898L238.626,686.9Z"/>
                        </clipPath>
                        <g clip-path="url(#_clip39)">
                            <g>
                                <clipPath id="_clip40">
                                    <path d="M238.626,686.9L214.54,823.5L324.626,842.912L348.712,706.312L238.624,686.9L238.626,686.9Z"/>
                                </clipPath>
                                <g clip-path="url(#_clip40)">
                                    <path d="M238.626,686.9L214.54,823.5L324.628,842.91L348.714,706.31L238.626,686.898L238.626,686.9Z" style="fill:url(#_Linear41);fill-rule:nonzero;"/>
                                </g>
                            </g>
                        </g>
                    </g>
                </g>
            </g>
            <g>
                <clipPath id="_clip42">
                    <path d="M464.354,796.592L451.418,755.332C465.538,774.76 479.442,799.192 492.678,827.398C477.238,822.544 468.998,811.446 464.352,796.594"/>
                </clipPath>
                <g clip-path="url(#_clip42)">
                    <g>
                        <g>
                            <rect x="451.496" y="755.35" width="41.26" height="72.064" style="fill:url(#_Linear43);fill-rule:nonzero;"/>
                        </g>
                    </g>
                </g>
            </g>
            <g>
                <g>
                    <g>
                        <clipPath id="_clip44">
                            <rect x="449.704" y="708.776" width="75.914" height="121.296"/>
                        </clipPath>
                        <g clip-path="url(#_clip44)">
                            <g>
                                <clipPath id="_clip45">
                                    <path d="M451.866,709.806L449.714,708.776C477.174,721.022 509.93,769.6 525.614,830.072L522.414,830.072C486.386,765.712 474.798,722.632 451.848,709.806"/>
                                </clipPath>
                                <g clip-path="url(#_clip45)">
                                    <g>
                                        <clipPath id="_clip46">
                                            <path d="M546.294,826.596L523.262,695.996L428.912,712.632L451.944,843.232L546.294,826.596Z"/>
                                        </clipPath>
                                        <g clip-path="url(#_clip46)">
                                            <g>
                                                <clipPath id="_clip47">
                                                    <path d="M546.294,826.596L523.262,695.996L428.912,712.632L451.944,843.232L546.294,826.596Z"/>
                                                </clipPath>
                                                <g clip-path="url(#_clip47)">
                                                    <path d="M546.294,826.596L523.262,695.996L428.912,712.632L451.944,843.232L546.294,826.596Z" style="fill:url(#_Linear48);fill-rule:nonzero;"/>
                                                </g>
                                            </g>
                                        </g>
                                    </g>
                                </g>
                            </g>
                        </g>
                    </g>
                </g>
            </g>
        </g>
        <path d="M271.266,40.2C278.734,31.08 284.822,15.584 293.118,-9.95C283.544,3.21 273.918,14.516 264.25,23.742C264.238,23.77 264.238,23.794 264.218,23.828C266.324,30.128 268.634,35.704 271.266,40.2" style="fill:rgb(7,154,225);fill-rule:nonzero;"/>
        <path d="M271.266,40.2C268.726,43.304 266.036,45.66 263.036,47.412L261.046,48.482C264.294,50.238 267.848,51.358 271.516,51.782L271.542,51.782L273.252,51.934L273.36,51.934L274.16,51.974L274.272,51.974L275.118,51.986L276.028,51.974L276.308,51.954L276.948,51.934L277.262,51.894L277.862,51.854C277.894,51.854 277.912,51.854 277.932,51.834C278.012,51.834 278.088,51.822 278.164,51.822L278.832,51.752C278.852,51.752 278.862,51.744 278.892,51.744C278.952,51.73 279.026,51.72 279.092,51.712L279.812,51.608C279.884,51.608 279.946,51.588 280.024,51.578L280.83,51.446L280.876,51.446C280.896,51.432 280.932,51.432 280.948,51.426L282.554,51.086C278.126,49.486 274.42,45.636 271.224,40.194" style="fill:rgb(25,105,188);fill-rule:nonzero;"/>
        <g>
            <path d="M207.986,51.986C211.247,51.98 214.5,51.668 217.702,51.052C220.71,50.498 223.734,49.662 226.762,48.604C229.276,49.836 231.918,50.744 234.714,51.32C236.882,51.76 239.114,51.988 241.514,51.988L208.006,51.988L207.986,51.986Z" style="fill:rgb(30,92,179);fill-rule:nonzero;"/>
            <path d="M241.494,51.986C249.43,51.986 255.71,51.052 261.046,48.486C264.293,50.246 267.847,51.366 271.516,51.786L271.542,51.786L273.252,51.938L273.36,51.938L274.16,51.978L274.272,51.978L275.118,51.99L241.47,51.99L241.494,51.986Z" style="fill:rgb(30,92,179);fill-rule:nonzero;"/>
        </g>
        <path d="M275.14,51.986L276.05,51.974L276.33,51.954L276.97,51.934L277.284,51.894L277.884,51.854C277.916,51.854 277.928,51.854 277.954,51.842C278.034,51.842 278.108,51.822 278.194,51.822L278.854,51.752C278.874,51.752 278.884,51.744 278.914,51.744C278.974,51.73 279.048,51.72 279.114,51.712L279.834,51.608C279.906,51.606 279.977,51.596 280.046,51.578L280.852,51.446L280.892,51.446C280.922,51.432 280.952,51.432 280.972,51.426L282.58,51.086C284.152,51.664 285.815,51.955 287.49,51.946L275.12,51.978L275.14,51.986Z" style="fill:rgb(29,96,181);fill-rule:nonzero;"/>
        <path d="M264.2,23.828C264.2,23.814 264.188,23.796 264.188,23.784L253.588,33.06L248.058,37.212L252.846,42.412C255.366,44.852 258.046,46.912 261.006,48.506L262.996,47.436C265.996,45.684 268.688,43.328 271.226,40.224C268.598,35.724 266.286,30.154 264.178,23.852" style="fill:rgb(23,95,171);fill-rule:nonzero;"/>
        <g transform="matrix(1.25,0,0,-1.25,-271.153,934.213)">
            <g>
                <clipPath id="_clip49">
                    <path d="M512.368,830.072L499.012,830.072C498.562,830.072 498.122,830.062 497.682,830.056L496.426,830.042L496.396,830.042L493.862,829.922L492.662,827.398C479.422,799.194 465.518,774.758 451.402,755.332C444.762,734.904 439.894,722.506 433.922,715.212C436.478,710.858 439.442,707.796 442.982,706.492C443.086,706.526 443.166,706.54 443.256,706.558C443.276,706.572 443.296,706.572 443.316,706.572C443.376,706.582 443.442,706.608 443.506,706.612C443.652,706.646 443.806,706.678 443.946,706.728L444.214,706.798C444.344,706.834 444.486,706.868 444.61,706.898C444.69,706.934 444.77,706.952 444.858,706.972C445.064,707.038 445.248,707.082 445.446,707.146C445.534,707.186 445.632,707.218 445.738,707.242C445.848,707.282 445.964,707.314 446.064,707.362C446.184,707.398 446.3,707.422 446.404,707.468C446.496,707.492 446.596,707.534 446.684,707.574C446.914,707.654 447.14,707.724 447.378,707.814C447.438,707.834 447.498,707.87 447.564,707.882C447.704,707.942 447.85,707.982 447.964,708.05C448.02,708.07 448.08,708.096 448.164,708.116C448.663,708.317 449.157,708.528 449.648,708.748C449.652,708.748 449.678,708.758 449.694,708.768C450.408,709.084 451.126,709.432 451.84,709.798C474.796,722.622 486.384,765.702 522.412,830.064L512.348,830.064L512.368,830.072Z"/>
                </clipPath>
                <g clip-path="url(#_clip49)">
                    <g>
                        <g>
                            <clipPath id="_clip50">
                                <rect x="433.874" y="706.46" width="88.5" height="123.6"/>
                            </clipPath>
                            <g clip-path="url(#_clip50)">
                                <rect x="433.874" y="706.48" width="88.5" height="123.6" style="fill:url(#_Linear51);fill-rule:nonzero;"/>
                            </g>
                        </g>
                    </g>
                </g>
            </g>
            <g>
                <g>
                    <g>
                        <clipPath id="_clip52">
                            <rect x="310.346" y="815.632" width="54.694" height="11.752"/>
                        </clipPath>
                        <g clip-path="url(#_clip52)">
                            <path d="M313.12,827.244L313.288,827.224C313.428,827.218 313.567,827.203 313.704,827.178C313.754,827.178 313.798,827.168 313.838,827.162L314.604,827.062C314.648,827.052 314.69,827.052 314.73,827.038L315.374,826.932C315.426,826.916 315.48,826.905 315.534,826.9L317.018,826.574L317.154,826.542L317.754,826.374C317.814,826.358 317.86,826.348 317.914,826.322L318.624,826.122C318.632,826.11 318.644,826.11 318.672,826.102L319.272,825.89L319.512,825.81L319.952,825.61C320.032,825.59 320.118,825.558 320.204,825.524L320.792,825.278L321.078,825.154L321.438,825.002C321.538,824.946 321.652,824.898 321.75,824.852L322.066,824.692C324.622,823.436 326.976,821.768 329.152,819.732C329.932,820.553 330.771,821.316 331.662,822.016C326.902,825.39 321.502,827.316 315.278,827.316C314.552,827.318 313.827,827.287 313.104,827.224" style="fill:rgb(125,203,236);fill-rule:nonzero;"/>
                            <path d="M329.17,819.752C330.504,818.508 331.782,817.126 332.97,815.632L336.462,817.96C334.938,819.484 333.328,820.852 331.658,822.036C330.79,821.356 329.954,820.596 329.148,819.752" style="fill:rgb(94,197,237);fill-rule:nonzero;"/>
                            <g>
                                <clipPath id="_clip53">
                                    <path d="M313.12,827.244L315.294,827.336C321.518,827.336 326.894,825.41 331.678,822.036C336.708,825.996 342.784,827.384 351.224,827.384L310.35,827.384C311.29,827.384 312.214,827.332 313.12,827.244"/>
                                </clipPath>
                                <g clip-path="url(#_clip53)">
                                    <g>
                                        <clipPath id="_clip54">
                                            <path d="M316.31,841.8L353.08,826.55L345.186,807.518L308.416,822.77L316.31,841.8Z"/>
                                        </clipPath>
                                        <g clip-path="url(#_clip54)">
                                            <g>
                                                <clipPath id="_clip55">
                                                    <path d="M316.31,841.8L353.08,826.548L345.186,807.516L308.416,822.768L316.31,841.8Z"/>
                                                </clipPath>
                                                <g clip-path="url(#_clip55)">
                                                    <path d="M316.31,841.8L353.08,826.55L345.186,807.518L308.416,822.77L316.31,841.8Z" style="fill:url(#_Linear56);fill-rule:nonzero;"/>
                                                </g>
                                            </g>
                                        </g>
                                    </g>
                                </g>
                            </g>
                            <g>
                                <clipPath id="_clip57">
                                    <path d="M351.226,827.384C342.786,827.384 336.71,825.998 331.68,822.036C333.35,820.852 334.96,819.484 336.484,817.96C343.478,822.412 350.41,825.356 357.244,826.64C359.854,827.132 362.456,827.38 365.02,827.38L351.226,827.38L351.226,827.384Z"/>
                                </clipPath>
                                <g clip-path="url(#_clip57)">
                                    <g>
                                        <clipPath id="_clip58">
                                            <path d="M328.15,825.84L359.35,839.98L368.578,819.626L337.378,805.486L328.15,825.84Z"/>
                                        </clipPath>
                                        <g clip-path="url(#_clip58)">
                                            <g>
                                                <clipPath id="_clip59">
                                                    <path d="M328.15,825.84L359.35,839.984L368.576,819.63L337.376,805.486L328.15,825.84Z"/>
                                                </clipPath>
                                                <g clip-path="url(#_clip59)">
                                                    <path d="M328.15,825.84L359.35,839.98L368.578,819.626L337.378,805.486L328.15,825.84Z" style="fill:url(#_Linear60);fill-rule:nonzero;"/>
                                                </g>
                                            </g>
                                        </g>
                                    </g>
                                </g>
                            </g>
                        </g>
                    </g>
                </g>
            </g>
            <g>
                <g>
                    <g>
                        <clipPath id="_clip61">
                            <rect x="428.334" y="728.376" width="65.506" height="101.544"/>
                        </clipPath>
                        <g clip-path="url(#_clip61)">
                            <g>
                                <clipPath id="_clip62">
                                    <path d="M451.4,755.32L464.346,796.592C468.986,811.448 477.212,822.546 492.662,827.396L493.848,829.92C468.648,828.414 456.902,815.6 450.978,796.636C440.622,763.52 434.35,742.052 428.312,728.376C436.026,735.752 443.736,744.804 451.4,755.32"/>
                                </clipPath>
                                <g clip-path="url(#_clip62)">
                                    <g>
                                        <g>
                                            <clipPath id="_clip63">
                                                <rect x="428.606" y="728.408" width="65.54" height="101.54"/>
                                            </clipPath>
                                            <g clip-path="url(#_clip63)">
                                                <rect x="428.606" y="728.406" width="65.54" height="101.544" style="fill:url(#_Linear64);fill-rule:nonzero;"/>
                                            </g>
                                        </g>
                                    </g>
                                </g>
                            </g>
                        </g>
                    </g>
                </g>
            </g>
        </g>
    </g>
    <defs>
        <linearGradient id="_Linear3" x1="0" y1="0" x2="1" y2="0" gradientUnits="userSpaceOnUse" gradientTransform="matrix(4.79017e-13,-7822.94,7822.94,4.79017e-13,10735.9,43118.3)"><stop offset="0" style="stop-color:rgb(9,148,220);stop-opacity:1"/><stop offset="0.11" style="stop-color:rgb(9,148,220);stop-opacity:1"/><stop offset="0.35" style="stop-color:rgb(102,206,245);stop-opacity:1"/><stop offset="0.45" style="stop-color:rgb(102,206,245);stop-opacity:1"/><stop offset="0.85" style="stop-color:rgb(18,123,202);stop-opacity:1"/><stop offset="1" style="stop-color:rgb(18,123,202);stop-opacity:1"/></linearGradient>
        <linearGradient id="_Linear5" x1="0" y1="0" x2="1" y2="0" gradientUnits="userSpaceOnUse" gradientTransform="matrix(5.03745e-13,-8226.79,8226.79,5.03745e-13,11441.1,44396.6)"><stop offset="0" style="stop-color:rgb(14,118,188);stop-opacity:1"/><stop offset="0.18" style="stop-color:rgb(14,118,188);stop-opacity:1"/><stop offset="0.36" style="stop-color:rgb(54,174,232);stop-opacity:1"/><stop offset="0.52" style="stop-color:rgb(54,174,232);stop-opacity:1"/><stop offset="0.85" style="stop-color:rgb(0,173,239);stop-opacity:1"/><stop offset="1" style="stop-color:rgb(0,173,239);stop-opacity:1"/></linearGradient>
        <linearGradient id="_Linear11" x1="0" y1="0" x2="1" y2="0" gradientUnits="userSpaceOnUse" gradientTransform="matrix(4.06081e-13,6631.81,-6631.81,4.06081e-13,11812,38459.9)"><stop offset="0" style="stop-color:rgb(28,99,183);stop-opacity:1"/><stop offset="0.5" style="stop-color:rgb(51,189,242);stop-opacity:1"/><stop offset="1" style="stop-color:rgb(51,189,242);stop-opacity:1"/></linearGradient>
        <linearGradient id="_Linear15" x1="0" y1="0" x2="1" y2="0" gradientUnits="userSpaceOnUse" gradientTransform="matrix(5.43022e-13,-8868.22,8868.22,5.43022e-13,11462,46944.6)"><stop offset="0" style="stop-color:rgb(22,106,184);stop-opacity:1"/><stop offset="0.1" style="stop-color:rgb(22,106,184);stop-opacity:1"/><stop offset="0.4" style="stop-color:rgb(54,174,232);stop-opacity:1"/><stop offset="0.52" style="stop-color:rgb(54,174,232);stop-opacity:1"/><stop offset="0.85" style="stop-color:rgb(7,152,221);stop-opacity:1"/><stop offset="1" style="stop-color:rgb(7,152,221);stop-opacity:1"/></linearGradient>
        <linearGradient id="_Linear18" x1="0" y1="0" x2="1" y2="0" gradientUnits="userSpaceOnUse" gradientTransform="matrix(6.14009e-13,-10027.5,10027.5,6.14009e-13,14252.6,49820.4)"><stop offset="0" style="stop-color:rgb(18,67,121);stop-opacity:1"/><stop offset="0.11" style="stop-color:rgb(18,67,121);stop-opacity:1"/><stop offset="0.39" style="stop-color:rgb(20,135,203);stop-opacity:1"/><stop offset="0.52" style="stop-color:rgb(20,135,203);stop-opacity:1"/><stop offset="0.78" style="stop-color:rgb(22,81,151);stop-opacity:1"/><stop offset="1" style="stop-color:rgb(22,81,151);stop-opacity:1"/></linearGradient>
        <linearGradient id="_Linear24" x1="0" y1="0" x2="1" y2="0" gradientUnits="userSpaceOnUse" gradientTransform="matrix(4.61941e-13,7544.07,-7544.07,4.61941e-13,24996.6,44974.2)"><stop offset="0" style="stop-color:rgb(19,106,180);stop-opacity:1"/><stop offset="0.32" style="stop-color:rgb(89,202,245);stop-opacity:1"/><stop offset="1" style="stop-color:rgb(89,202,245);stop-opacity:1"/></linearGradient>
        <linearGradient id="_Linear30" x1="0" y1="0" x2="1" y2="0" gradientUnits="userSpaceOnUse" gradientTransform="matrix(3.53864e-13,5779.05,-5779.05,3.53864e-13,8661.79,33702.3)"><stop offset="0" style="stop-color:rgb(49,142,213);stop-opacity:1"/><stop offset="0.68" style="stop-color:rgb(56,167,228);stop-opacity:1"/><stop offset="1" style="stop-color:rgb(56,167,228);stop-opacity:1"/></linearGradient>
        <linearGradient id="_Linear35" x1="0" y1="0" x2="1" y2="0" gradientUnits="userSpaceOnUse" gradientTransform="matrix(2.66175e-13,4346.97,-4346.97,2.66175e-13,8306.07,26202.6)"><stop offset="0" style="stop-color:rgb(5,161,230);stop-opacity:1"/><stop offset="1" style="stop-color:rgb(5,161,230);stop-opacity:1"/></linearGradient>
        <linearGradient id="_Linear37" x1="0" y1="0" x2="1" y2="0" gradientUnits="userSpaceOnUse" gradientTransform="matrix(3.19281e-13,5214.25,-5214.25,3.19281e-13,9748.74,36578.1)"><stop offset="0" style="stop-color:rgb(25,89,166);stop-opacity:1"/><stop offset="0.15" style="stop-color:rgb(25,89,166);stop-opacity:1"/><stop offset="0.48" style="stop-color:rgb(5,161,230);stop-opacity:1"/><stop offset="0.5" style="stop-color:rgb(5,161,230);stop-opacity:1"/><stop offset="0.92" style="stop-color:rgb(126,197,234);stop-opacity:1"/><stop offset="1" style="stop-color:rgb(126,197,234);stop-opacity:1"/></linearGradient>
        <linearGradient id="_Linear41" x1="0" y1="0" x2="1" y2="0" gradientUnits="userSpaceOnUse" gradientTransform="matrix(-1309.94,8637.45,-8637.45,-1309.94,19711.8,56016.6)"><stop offset="0" style="stop-color:rgb(22,80,150);stop-opacity:1"/><stop offset="0.1" style="stop-color:rgb(22,80,150);stop-opacity:1"/><stop offset="1" style="stop-color:rgb(13,130,202);stop-opacity:1"/></linearGradient>
        <linearGradient id="_Linear43" x1="0" y1="0" x2="1" y2="0" gradientUnits="userSpaceOnUse" gradientTransform="matrix(1.27671e-13,2085.03,-2085.03,1.27671e-13,10191.5,28569.4)"><stop offset="0" style="stop-color:rgb(5,161,230);stop-opacity:1"/><stop offset="0.65" style="stop-color:rgb(5,161,230);stop-opacity:1"/><stop offset="0.87" style="stop-color:rgb(4,149,214);stop-opacity:1"/><stop offset="1" style="stop-color:rgb(4,149,214);stop-opacity:1"/></linearGradient>
        <linearGradient id="_Linear48" x1="0" y1="0" x2="1" y2="0" gradientUnits="userSpaceOnUse" gradientTransform="matrix(-1380.88,-9823.14,9823.14,-1380.88,29726.8,62189.1)"><stop offset="0" style="stop-color:rgb(56,167,228);stop-opacity:1"/><stop offset="0.36" style="stop-color:rgb(56,167,228);stop-opacity:1"/><stop offset="0.96" style="stop-color:rgb(14,136,211);stop-opacity:1"/><stop offset="1" style="stop-color:rgb(14,136,211);stop-opacity:1"/></linearGradient>
        <linearGradient id="_Linear51" x1="0" y1="0" x2="1" y2="0" gradientUnits="userSpaceOnUse" gradientTransform="matrix(4.77712e-13,-7801.63,7801.63,4.77712e-13,21590.9,52026.8)"><stop offset="0" style="stop-color:rgb(22,140,212);stop-opacity:1"/><stop offset="0.5" style="stop-color:rgb(28,135,204);stop-opacity:1"/><stop offset="1" style="stop-color:rgb(21,75,141);stop-opacity:1"/></linearGradient>
        <linearGradient id="_Linear56" x1="0" y1="0" x2="1" y2="0" gradientUnits="userSpaceOnUse" gradientTransform="matrix(649.37,-206.755,206.755,649.37,7390.47,15086)"><stop offset="0" style="stop-color:rgb(151,214,238);stop-opacity:1"/><stop offset="0.7" style="stop-color:rgb(85,193,234);stop-opacity:1"/><stop offset="1" style="stop-color:rgb(85,193,234);stop-opacity:1"/></linearGradient>
        <linearGradient id="_Linear60" x1="0" y1="0" x2="1" y2="0" gradientUnits="userSpaceOnUse" gradientTransform="matrix(464.235,179.541,-179.541,464.235,7079.46,14924.1)"><stop offset="0" style="stop-color:rgb(122,204,236);stop-opacity:1"/><stop offset="0.34" style="stop-color:rgb(122,204,236);stop-opacity:1"/><stop offset="0.84" style="stop-color:rgb(63,183,237);stop-opacity:1"/><stop offset="1" style="stop-color:rgb(63,183,237);stop-opacity:1"/></linearGradient>
        <linearGradient id="_Linear64" x1="0" y1="0" x2="1" y2="0" gradientUnits="userSpaceOnUse" gradientTransform="matrix(3.83867e-13,-6269.02,6269.02,3.83867e-13,15547.9,42538.5)"><stop offset="0" style="stop-color:rgb(29,167,231);stop-opacity:1"/><stop offset="1" style="stop-color:rgb(55,171,231);stop-opacity:1"/></linearGradient>
    </defs>
</svg>
