<?xml version="1.0" encoding="UTF-8" standalone="no"?>
<!DOCTYPE svg PUBLIC "-//W3C//DTD SVG 1.1//EN" "http://www.w3.org/Graphics/SVG/1.1/DTD/svg11.dtd">
<svg width="100%" height="100%" viewBox="0 0 58 128" version="1.1" xmlns="http://www.w3.org/2000/svg" xmlns:xlink="http://www.w3.org/1999/xlink" xml:space="preserve" xmlns:serif="http://www.serif.com/" style="fill-rule:evenodd;clip-rule:evenodd;stroke-linejoin:round;stroke-miterlimit:2;">
    <g transform="matrix(1,0,0,1,-35.2386,-1.24345e-14)">
        <g transform="matrix(1.37374,0,0,1.37374,-23.9197,-4.31493)">
            <path d="M82.362,33.544C83.589,37.091 84.471,40.712 84.762,44.464C85.122,49.12 84.958,53.744 83.976,58.323L83.85,58.689C83.542,58.69 83.228,58.651 82.927,58.698C80.384,59.098 77.844,59.512 75.303,59.924C72.676,60.35 70.047,60.759 67.425,61.213C66.496,61.373 65.346,61.182 64.971,62.466L64.791,62.527L64.918,54.849L64.789,36.323L66.013,36.113C68.014,35.786 70.015,35.453 72.019,35.134C74.409,34.755 76.801,34.385 79.193,34.015C80.249,33.853 81.306,33.702 82.362,33.544Z" style="fill:rgb(67,153,52);"/>
            <path d="M62.265,84.911C60.974,83.801 59.638,82.74 58.401,81.572C51.743,75.292 46.872,67.899 44.473,58.986C43.812,56.534 43.372,54.041 43.23,51.507C43.13,49.733 42.987,47.944 43.113,46.179C43.446,41.486 44.125,36.838 45.501,32.317L45.577,32.212C45.711,32.39 45.903,32.548 45.971,32.749C47.315,36.705 48.648,40.665 49.975,44.628C54.144,57.079 58.308,69.533 62.484,81.982C62.566,82.225 62.777,82.424 62.929,82.643L62.265,84.911Z" style="fill:rgb(69,165,56);"/>
            <path d="M82.362,33.544C81.305,33.701 80.248,33.853 79.193,34.015C76.801,34.385 74.409,34.755 72.019,35.134C70.016,35.452 68.015,35.785 66.013,36.113L64.789,36.323L64.779,35.525C64.738,34.869 64.67,34.213 64.661,33.557L64.524,21.003C64.492,18.384 64.444,15.765 64.391,13.147C64.364,11.52 64.317,9.893 64.25,8.267C64.21,7.394 64.069,6.525 64.013,5.652C63.98,5.15 64.024,4.644 64.035,4.14C64.659,5.349 65.27,6.567 65.911,7.767C66.924,9.664 68.539,11.062 69.994,12.587C75.74,18.618 79.819,25.626 82.362,33.544Z" style="fill:rgb(70,160,55);"/>
            <path d="M64.792,62.527L64.972,62.466C65.347,61.182 66.497,61.373 67.426,61.213C70.048,60.759 72.677,60.35 75.304,59.924C77.845,59.513 80.385,59.099 82.928,58.698C83.229,58.651 83.543,58.69 83.851,58.689C83.376,60.385 83.002,62.118 82.399,63.767C81.714,65.637 80.886,67.463 80.007,69.253C78.69,71.922 77.061,74.426 75.154,76.711C73.688,78.473 72.054,80.104 70.417,81.713C69.511,82.602 68.445,83.327 67.451,84.127L67.193,83.951L66.266,83.159L65.307,81.055C64.652,78.601 64.294,76.078 64.242,73.539L64.26,73.111L64.391,71.257C64.434,70.624 64.492,69.992 64.519,69.359C64.615,67.083 64.701,64.805 64.792,62.527Z" style="fill:rgb(64,148,51);"/>
            <path d="M64.792,62.527C64.702,64.805 64.616,67.084 64.519,69.362C64.492,69.996 64.435,70.628 64.391,71.26L63.807,71.481C62.509,67.66 61.21,63.879 59.94,60.089C57.839,53.818 55.764,47.538 53.666,41.265C51.972,36.202 50.266,31.144 48.548,26.089C48.467,25.853 48.237,25.667 48.077,25.458L51.817,18.581C51.946,18.804 52.115,19.013 52.196,19.253C53.926,24.373 55.653,29.494 57.365,34.62C59.593,41.29 61.806,47.963 64.032,54.634C64.121,54.9 64.267,55.146 64.407,55.445L64.919,54.849L64.792,62.527Z" style="fill:rgb(79,170,65);"/>
            <path d="M48.076,25.458C48.237,25.667 48.467,25.853 48.547,26.089C50.265,31.144 51.971,36.202 53.665,41.265C55.763,47.538 57.838,53.818 59.939,60.089C61.209,63.879 62.508,67.659 63.806,71.481L64.39,71.26L64.259,73.114L64.14,73.541C63.937,75.57 63.766,77.603 63.518,79.628C63.394,80.643 63.129,81.639 62.928,82.643C62.777,82.424 62.565,82.225 62.483,81.982C58.306,69.533 54.143,57.079 49.974,44.628C48.648,40.666 47.313,36.706 45.97,32.749C45.902,32.548 45.71,32.39 45.576,32.212L48.076,25.458Z" style="fill:rgb(74,167,60);"/>
            <path d="M64.918,54.849L64.406,55.445C64.266,55.146 64.12,54.9 64.031,54.634C61.805,47.963 59.592,41.29 57.364,34.62C55.65,29.495 53.927,24.372 52.195,19.253C52.114,19.013 51.945,18.804 51.816,18.581L56.441,12.497C56.587,12.691 56.795,12.864 56.87,13.083C58.154,16.843 59.426,20.606 60.692,24.372C61.874,27.89 63.038,31.412 64.234,34.924C64.314,35.159 64.593,35.325 64.779,35.525L64.789,36.323L64.918,54.849Z" style="fill:rgb(87,174,71);"/>
            <path d="M64.779,35.525C64.592,35.326 64.314,35.16 64.234,34.924C63.039,31.412 61.874,27.89 60.692,24.372C59.427,20.606 58.153,16.843 56.87,13.083C56.795,12.864 56.587,12.691 56.441,12.497C57.945,11.024 59.402,9.498 60.967,8.093C62.358,6.845 63.476,5.507 63.528,3.534L63.638,3.141L64.034,4.139C64.024,4.643 63.979,5.149 64.012,5.651C64.069,6.524 64.21,7.393 64.249,8.266C64.322,9.891 64.357,11.519 64.39,13.146C64.443,15.764 64.491,18.383 64.523,21.002L64.66,33.556C64.67,34.213 64.739,34.869 64.779,35.525Z" style="fill:rgb(96,178,79);"/>
            <path d="M62.929,82.642C63.13,81.638 63.395,80.642 63.519,79.627C63.767,77.603 63.938,75.569 64.141,73.54L64.192,73.532L64.242,73.541C64.294,76.08 64.652,78.603 65.307,81.057C65.172,81.235 64.983,81.392 64.911,81.592C64.356,83.158 63.832,84.737 63.274,86.302C63.198,86.516 62.984,86.683 62.835,86.87L62.264,84.91L62.929,82.642Z" style="fill:rgb(169,170,136);"/>
            <path d="M62.835,86.871C62.984,86.683 63.198,86.517 63.274,86.303C63.832,84.738 64.356,83.159 64.911,81.593C64.982,81.393 65.172,81.236 65.307,81.058L66.266,83.162C66.077,83.43 65.815,83.673 65.71,83.972L63.874,89.364C63.798,89.581 63.541,89.733 63.367,89.916L62.835,86.871Z" style="fill:rgb(182,181,152);"/>
            <path d="M63.367,89.915C63.54,89.732 63.798,89.58 63.874,89.363L65.71,83.971C65.814,83.672 66.077,83.429 66.266,83.161L67.194,83.952C66.746,84.395 66.497,84.907 66.647,85.554L66.365,86.477C66.237,86.635 66.051,86.773 65.988,86.954C65.347,88.79 64.736,90.636 64.09,92.471C64.008,92.703 63.781,92.886 63.622,93.092L63.367,89.915Z" style="fill:rgb(194,193,167);"/>
            <path d="M63.621,93.091C63.781,92.885 64.008,92.702 64.089,92.47C64.735,90.635 65.347,88.789 65.987,86.953C66.05,86.772 66.236,86.635 66.364,86.476L65.975,90.712C65.871,90.832 65.721,90.937 65.671,91.076L64.377,94.784C64.286,95.037 64.112,95.263 63.976,95.5C63.855,95.342 63.639,95.189 63.629,95.025C63.591,94.383 63.618,93.736 63.621,93.091Z" style="fill:rgb(206,205,183);"/>
            <path d="M63.977,95.501C64.113,95.264 64.287,95.038 64.378,94.785L65.672,91.077C65.722,90.937 65.873,90.833 65.976,90.713L65.986,93.493L65.055,95.88L63.977,95.501Z" style="fill:rgb(219,218,199);"/>
            <path d="M65.055,95.88L65.986,93.493L66.178,96.317L65.055,95.88Z" style="fill:rgb(235,233,220);"/>
            <path d="M66.646,85.554C66.497,84.908 66.745,84.396 67.193,83.952L67.451,84.128L66.646,85.554Z" style="fill:rgb(206,205,183);"/>
            <path d="M64.242,73.542L64.192,73.533L64.141,73.541L64.26,73.114L64.242,73.542Z" style="fill:rgb(79,170,65);"/>
        </g>
    </g>
</svg>
