<?xml version="1.0" encoding="UTF-8" standalone="no"?>
<!DOCTYPE svg PUBLIC "-//W3C//DTD SVG 1.1//EN" "http://www.w3.org/Graphics/SVG/1.1/DTD/svg11.dtd">
<svg width="100%" height="100%" viewBox="0 0 128 128" version="1.1" xmlns="http://www.w3.org/2000/svg" xmlns:xlink="http://www.w3.org/1999/xlink" xml:space="preserve" xmlns:serif="http://www.serif.com/" style="fill-rule:evenodd;clip-rule:evenodd;stroke-linejoin:round;stroke-miterlimit:2;">
    <g transform="matrix(5.84045,0,0,5.84045,-603.716,-344.365)">
        <path d="M114.325,80.749C114.035,80.749 113.747,80.673 113.493,80.525L110.843,78.957C110.447,78.736 110.64,78.657 110.771,78.612C111.299,78.428 111.406,78.385 111.969,78.067C112.028,78.034 112.105,78.046 112.166,78.082L114.201,79.291C114.278,79.332 114.37,79.332 114.447,79.291L122.384,74.71C122.46,74.665 122.506,74.583 122.506,74.495L122.506,65.335C122.506,65.246 122.459,65.162 122.383,65.116L114.449,60.539C114.373,60.497 114.28,60.497 114.204,60.539L106.271,65.117C106.195,65.163 106.147,65.246 106.146,65.335L106.146,74.495C106.146,74.583 106.195,74.666 106.271,74.707L108.445,75.964C109.625,76.553 110.348,75.859 110.348,75.161L110.348,66.116C110.348,65.989 110.451,65.888 110.578,65.888L111.585,65.888C111.71,65.888 111.814,65.989 111.814,66.116L111.814,75.161C111.814,76.735 110.957,77.638 109.464,77.638C109.005,77.638 108.644,77.638 107.636,77.142L105.555,75.944C105.04,75.644 104.723,75.092 104.723,74.496L104.723,65.336C104.723,64.741 105.04,64.186 105.555,63.89L113.492,59.303C114.011,59.02 114.64,59.02 115.159,59.303L123.096,63.89C123.61,64.187 123.929,64.742 123.929,65.336L123.929,74.496C123.928,75.092 123.61,75.644 123.096,75.944L115.159,80.526C114.906,80.673 114.618,80.75 114.325,80.749M116.778,74.438C113.303,74.438 112.576,72.843 112.576,71.506C112.577,71.38 112.68,71.277 112.806,71.277L113.832,71.277C113.945,71.277 114.042,71.359 114.06,71.471C114.214,72.516 114.677,73.043 116.778,73.043C118.449,73.043 119.161,72.665 119.161,71.777C119.161,71.265 118.959,70.886 116.361,70.631C114.189,70.416 112.846,69.937 112.846,68.198C112.846,66.597 114.196,65.641 116.458,65.641C119.001,65.641 120.259,66.524 120.418,68.418C120.423,68.482 120.401,68.546 120.358,68.594C120.314,68.64 120.254,68.666 120.19,68.667L119.159,68.667C119.052,68.667 118.959,68.592 118.936,68.488C118.688,67.388 118.088,67.037 116.457,67.037C114.632,67.037 114.42,67.674 114.42,68.149C114.42,68.726 114.67,68.894 117.135,69.22C119.574,69.543 120.733,69.999 120.733,71.714C120.734,73.447 119.292,74.438 116.778,74.438" style="fill:rgb(131,205,41);fill-rule:nonzero;"/>
    </g>
</svg>
