<?xml version="1.0" encoding="UTF-8" standalone="no"?>
<!DOCTYPE svg PUBLIC "-//W3C//DTD SVG 1.1//EN" "http://www.w3.org/Graphics/SVG/1.1/DTD/svg11.dtd">
<svg width="100%" height="100%" viewBox="0 0 128 65" version="1.1" xmlns="http://www.w3.org/2000/svg" xmlns:xlink="http://www.w3.org/1999/xlink" xml:space="preserve" xmlns:serif="http://www.serif.com/" style="fill-rule:evenodd;clip-rule:evenodd;stroke-linejoin:round;stroke-miterlimit:2;">
    <g transform="matrix(1,0,0,1,3.55271e-15,-31.7465)">
        <g transform="matrix(1.03193,0,0,1.03193,-2.04426,-2.04628)">
            <path d="M59.807,95.195C45.555,94.707 32.002,91.474 21.464,86.057C20.472,85.549 18.305,84.34 18.305,84.298C18.305,84.282 18.649,84.443 19.068,84.66C24.226,87.3 30.71,89.556 37.257,90.987C47.639,93.261 59.01,93.868 70.152,92.735C80.668,91.67 90.493,89.08 98.88,85.169C106.424,81.648 112.46,77.145 116.482,72.051C122.655,64.217 123.484,55.137 118.756,47.082C115.696,41.862 110.587,37.26 103.574,33.415C102.903,33.049 102.375,32.747 102.403,32.747C102.495,32.747 105.463,34.178 106.39,34.674C110.919,37.078 114.521,39.642 117.665,42.691C121.614,46.522 124.094,50.467 125.308,54.851C126.429,58.903 126.22,63.398 124.724,67.381C122.71,72.742 118.593,77.676 112.572,81.949C102.788,88.886 88.785,93.48 73.252,94.846C68.78,95.222 64.291,95.341 59.805,95.201L59.807,95.195ZM95.106,72.564L69.926,72.564L69.926,36.659L79.4,36.659L79.4,65.723L95.105,65.723L95.106,72.564ZM67.454,54.638C67.454,57.98 66.687,60.976 65.149,63.62C63.611,66.264 61.669,68.294 59.323,69.71C57.373,70.914 55.196,71.707 52.928,72.038C50.623,72.385 48.17,72.557 45.568,72.557L33.766,72.557L33.766,36.647L45.469,36.647C48.121,36.647 50.601,36.807 52.913,37.132C55.222,37.453 57.44,38.25 59.426,39.471C61.886,40.959 63.912,43.067 65.302,45.584C66.737,48.148 67.454,51.17 67.454,54.642L67.454,54.638ZM57.728,54.566C57.728,52.2 57.301,50.178 56.446,48.499C55.591,46.82 54.283,45.504 52.508,44.554C51.26,43.889 49.879,43.511 48.467,43.447L43.415,43.348L43.236,43.348L43.236,65.83L43.415,65.83L48.799,65.719C50.257,65.647 51.645,65.215 52.966,64.429C54.519,63.498 55.702,62.208 56.511,60.571C57.32,58.934 57.728,56.927 57.728,54.565L57.728,54.566ZM15.687,73.201C12.799,73.201 10.261,72.934 8.075,72.404C5.889,71.874 3.859,71.214 1.981,70.428L1.981,61.889L2.843,61.889C4.736,63.419 6.819,64.59 9.101,65.411C11.383,66.232 13.592,66.643 15.736,66.643C16.278,66.643 16.991,66.586 17.877,66.471C18.763,66.356 19.476,66.181 20.018,65.941C20.652,65.686 21.222,65.295 21.689,64.796C22.147,64.303 22.372,63.659 22.372,62.854C22.372,61.954 22.002,61.225 21.258,60.66C20.514,60.095 19.629,59.687 18.599,59.428L14.482,58.512C13.098,58.243 11.732,57.889 10.392,57.451C7.469,56.47 5.374,55.15 4.111,53.498C2.848,51.846 2.211,49.766 2.211,47.275C2.211,43.913 3.703,41.193 6.694,39.11C9.685,37.027 13.413,35.985 17.889,35.985C20.138,35.985 22.382,36.203 24.589,36.637C26.809,37.072 28.798,37.66 30.557,38.4L30.557,46.6L29.721,46.6C28.317,45.459 26.607,44.494 24.589,43.704C22.571,42.914 20.499,42.521 18.37,42.521C17.624,42.514 16.878,42.572 16.142,42.693C15.425,42.825 14.727,43.043 14.062,43.342C13.47,43.602 12.947,43.995 12.532,44.491C12.101,44.999 11.883,45.563 11.883,46.189C11.883,47.105 12.226,47.834 12.909,48.372C13.592,48.91 14.916,49.398 16.873,49.833L20.536,50.627C21.707,50.886 22.963,51.238 24.298,51.688C26.912,52.588 28.862,53.798 30.136,55.32C31.41,56.842 32.048,58.842 32.048,61.337C32.048,64.905 30.575,67.774 27.629,69.945C24.683,72.116 20.7,73.2 15.686,73.2L15.687,73.201Z" style="fill:rgb(32,69,113);fill-rule:nonzero;"/>
            <path d="M31.163,89.112C30.93,89.112 30.739,89.276 30.739,89.478C30.739,89.68 30.93,89.848 31.163,89.848C31.396,89.848 31.583,89.68 31.583,89.478C31.583,89.276 31.396,89.112 31.163,89.112ZM49.264,92.405C48.902,92.405 48.604,92.661 48.604,92.977C48.604,93.293 48.902,93.553 49.264,93.553C49.626,93.553 49.924,93.297 49.924,92.977C49.924,92.657 49.63,92.405 49.264,92.405ZM39.87,91.161C39.58,91.161 39.343,91.367 39.343,91.623C39.343,91.879 39.58,92.081 39.87,92.081C40.16,92.081 40.4,91.875 40.4,91.623C40.4,91.371 40.163,91.161 39.87,91.161ZM59.555,92.775C59.101,92.775 58.731,93.096 58.731,93.492C58.731,93.888 59.101,94.209 59.555,94.209C60.009,94.209 60.379,93.888 60.379,93.492C60.379,93.096 60.009,92.775 59.555,92.775ZM70.182,92.222C69.61,92.222 69.148,92.623 69.148,93.119C69.148,93.615 69.61,94.016 70.182,94.016C70.754,94.016 71.212,93.612 71.212,93.119C71.212,92.626 70.75,92.222 70.182,92.222ZM80.828,90.398C80.118,90.398 79.542,90.898 79.542,91.52C79.542,92.142 80.118,92.638 80.828,92.638C81.538,92.638 82.118,92.138 82.118,91.52C82.118,90.902 81.542,90.398 80.828,90.398ZM91.485,87.059C90.596,87.059 89.875,87.689 89.875,88.463C89.875,89.237 90.596,89.863 91.485,89.863C92.374,89.863 93.099,89.233 93.099,88.463C93.099,87.693 92.374,87.059 91.485,87.059ZM101.688,82.621C100.7,82.621 99.898,83.315 99.898,84.178C99.898,85.041 100.699,85.735 101.688,85.735C102.677,85.735 103.478,85.037 103.478,84.178C103.478,83.319 102.677,82.621 101.688,82.621ZM110.991,76.237C109.892,76.237 108.999,77.012 108.999,77.965C108.999,78.918 109.892,79.697 110.991,79.697C112.09,79.697 112.979,78.922 112.979,77.965C112.979,77.008 112.09,76.237 110.991,76.237ZM118.66,67.255C117.229,67.255 116.073,68.262 116.073,69.506C116.073,70.75 117.229,71.753 118.66,71.753C120.091,71.753 121.247,70.746 121.247,69.506C121.247,68.266 120.087,67.255 118.66,67.255ZM121.953,57.937C120.854,57.937 119.965,58.712 119.965,59.669C119.965,60.626 120.854,61.397 121.953,61.397C123.052,61.397 123.945,60.622 123.945,59.669C123.945,58.716 123.056,57.937 121.953,57.937ZM120.843,52.122C121.629,52.122 122.266,51.569 122.266,50.89C122.266,50.211 121.629,49.654 120.843,49.654C120.057,49.654 119.424,50.207 119.424,50.89C119.424,51.573 120.061,52.122 120.843,52.122ZM117.375,45.403C117.936,45.403 118.39,45.01 118.39,44.522C118.39,44.034 117.932,43.641 117.375,43.641C116.818,43.641 116.356,44.034 116.356,44.522C116.356,45.01 116.814,45.403 117.375,45.403ZM113.556,39.767C113.186,39.767 112.881,40.034 112.881,40.358C112.881,40.682 113.186,40.946 113.556,40.946C113.926,40.946 114.235,40.683 114.235,40.358C114.235,40.033 113.93,39.767 113.556,39.767ZM109.496,37.459C109.744,37.459 109.946,37.283 109.946,37.07C109.946,36.857 109.744,36.677 109.496,36.677C109.248,36.677 109.046,36.853 109.046,37.07C109.046,37.287 109.248,37.459 109.496,37.459" style="fill:rgb(32,69,113);"/>
        </g>
    </g>
</svg>
