<?xml version="1.0" encoding="UTF-8" standalone="no"?>
<!DOCTYPE svg PUBLIC "-//W3C//DTD SVG 1.1//EN" "http://www.w3.org/Graphics/SVG/1.1/DTD/svg11.dtd">
<svg width="100%" height="100%" viewBox="0 0 110 118" version="1.1" xmlns="http://www.w3.org/2000/svg" xmlns:xlink="http://www.w3.org/1999/xlink" xml:space="preserve" xmlns:serif="http://www.serif.com/" style="fill-rule:evenodd;clip-rule:evenodd;stroke-linejoin:round;stroke-miterlimit:2;">
    <g transform="matrix(1,0,0,1,-9.43854,-5.14616)">
        <g transform="matrix(1,0,0,1,-1.79469,3.18873)">
            <path d="M55.25,4.15C54.92,4.26 53.15,4.83 51.29,5.44C41.29,8.71 34.21,12.5 32.45,15.5C31.78,16.65 31.65,17.58 32.05,18.51C32.49,19.56 33.3,20.35 35.52,21.92C36.56,22.65 38.33,24.18 39.48,25.33C44.98,30.82 47.65,37.55 47.35,45.16C47.01,53.72 43,62.28 35.32,70.85C32.64,73.84 29.89,76.33 24.61,80.56C20.21,84.08 17.82,86.36 16.19,88.57C11.2,95.37 12.53,101.43 20.15,106.49C26.87,110.96 38.71,114.68 52.66,116.7C57.34,117.38 62.63,117.81 63.9,117.62L64.79,117.49L66.19,114.97C73.27,102.22 76.85,90.2 77.28,77.76C77.47,72.21 76.77,65.64 75.58,61.8C75.36,61.11 75.2,60.52 75.23,60.5C75.25,60.48 77.23,59.89 79.63,59.17C92.24,55.41 104.44,52.45 114.52,50.7C116.48,50.36 118.16,50.01 118.25,49.92C118.79,49.39 117.22,46.94 114.67,44.31C105.24,34.58 88.58,27.17 69.03,24.02C65.26,23.41 64.8,23.19 63.4,21.34C61.18,18.4 59.09,13.37 56.24,4.17C56.15,3.89 56.06,3.89 55.25,4.15ZM56.55,7.61C57.65,10.6 58.32,12.95 58.32,13.78L58.32,14.43L57.39,14.32C52.35,13.74 44.31,12.49 42.6,12.03C42.16,11.91 41.91,11.74 41.99,11.61C42.12,11.4 43.83,10.58 48.91,8.27C53.65,6.12 55.45,5.32 55.59,5.31C55.65,5.31 56.08,6.34 56.55,7.61ZM45.89,13.92C52.04,15.21 56.52,16.02 57.51,16.02C58.47,16.02 58.36,16.1 53.84,18.86C50.35,20.98 49.95,21.18 49.07,21.18L48.11,21.18L45.53,18.56C42.4,15.39 40.28,13.07 40.28,12.81C40.28,12.7 40.34,12.67 40.43,12.72C40.51,12.76 42.98,13.31 45.89,13.92ZM41.35,16.83C42.86,18.59 44.03,20.07 43.97,20.14C43.84,20.27 39.53,19.2 36.89,18.39C34.59,17.68 34.31,17.44 34.92,16.66C35.32,16.14 38.29,13.66 38.51,13.65C38.57,13.64 39.84,15.06 41.35,16.83ZM60.97,20.48C61.57,21.91 62.03,23.07 62.01,23.09C61.98,23.11 53.9,21.86 53.19,21.72C53.04,21.69 54.41,20.76 56.25,19.64C58.09,18.52 59.66,17.67 59.74,17.76C59.82,17.83 60.37,19.05 60.97,20.48ZM43.35,23.19C43.51,23.35 45.44,29.55 45.35,29.63C45.32,29.66 44.4,28.6 43.31,27.25C42.21,25.9 40.56,24.01 39.61,23.02L37.9,21.23L40.57,22.15C42.03,22.66 43.29,23.13 43.35,23.19ZM51.07,24.02C54.42,24.5 57.2,24.93 57.25,24.98C57.29,25.03 55.27,26.6 52.75,28.48C50.23,30.35 48.15,31.86 48.12,31.83C48.09,31.8 47.84,31.02 47.56,30.09C47.28,29.16 46.56,27.23 45.97,25.78C45.38,24.33 44.92,23.15 44.94,23.15C44.96,23.15 47.72,23.55 51.07,24.02ZM59.49,26.7C60.23,28.43 60.52,30.09 60.64,33.4C60.7,35.18 60.71,36.63 60.65,36.63C60.59,36.63 59.53,36.26 58.3,35.82C55.84,34.93 51.02,33.34 50.45,33.23C50.2,33.18 51.36,32.07 54.41,29.44C56.79,27.39 58.81,25.72 58.9,25.72C59,25.73 59.26,26.17 59.49,26.7ZM68.13,27.12C71.84,27.88 75.08,28.56 75.34,28.62C75.71,28.71 74.82,29.27 70.9,31.42C68.2,32.9 65.14,34.58 64.1,35.17C63.05,35.76 62.19,36.21 62.17,36.19C62.15,36.17 62.26,35.62 62.41,34.96C62.97,32.56 62.62,29.56 61.5,27.17C61.17,26.48 60.9,25.87 60.9,25.82C60.9,25.65 61.57,25.77 68.13,27.12ZM78.24,31.65C78.05,32.49 77.64,33.92 77.31,34.85C76.6,36.89 74.01,42.18 73.66,42.32C73.52,42.38 72.3,41.81 70.97,41.07C69.64,40.33 67.71,39.35 66.7,38.9L64.86,38.08L71.65,33.73C77.28,30.12 78.45,29.44 78.51,29.76C78.55,29.96 78.43,30.81 78.24,31.65ZM83.2,30.1C90.24,32.12 97.67,34.85 97.24,35.26C97.15,35.34 96.23,35.65 95.2,35.94C89.89,37.45 82.5,40 79.04,41.52C77.97,41.99 77.04,42.34 76.99,42.29C76.94,42.24 77.36,40.68 77.93,38.84C79.04,35.21 80.33,30.31 80.33,29.68C80.33,29.4 80.43,29.31 80.68,29.38C80.86,29.43 81.99,29.75 83.2,30.1ZM52.93,37.4C54.54,37.93 56.41,38.64 57.1,38.99C58.35,39.62 58.36,39.63 58,40.02C57.36,40.73 50.37,47.24 50.17,47.31C50.07,47.35 49.99,46.36 49.99,44.93C49.98,42.45 49.7,37.98 49.49,36.98C49.33,36.25 49.46,36.26 52.93,37.4ZM97.63,38.69C96.09,41.23 93.56,44.85 91.73,47.13C89.86,49.47 85.91,53.87 85.68,53.87C85.59,53.87 85.02,53.16 84.41,52.28C82.16,49.07 79.55,46.29 77.26,44.67C77.04,44.52 76.91,44.35 76.96,44.3C77.01,44.25 80.77,42.87 85.29,41.23C94.45,37.91 98.48,36.56 98.73,36.74C98.75,36.77 98.26,37.64 97.63,38.69ZM103.36,38.26C109.68,42.67 113.98,46.24 115.54,48.37C115.93,48.91 116.22,49.37 116.18,49.4C116.14,49.43 114.11,49.66 111.65,49.9C101.84,50.87 94.85,51.85 91.15,52.79C90.16,53.04 89.33,53.23 89.32,53.22C89.3,53.2 89.95,52.4 90.78,51.41C95.06,46.28 98.92,40.94 100.36,38.17C100.74,37.44 101.11,36.84 101.19,36.84C101.26,36.83 102.23,37.47 103.36,38.26ZM67.93,43.73C69.14,44.38 70.07,44.98 70.02,45.08C69.93,45.26 59.26,51.1 59.17,51.02C59.15,51 59.7,49.25 60.4,47.11C61.1,44.97 61.78,42.65 61.91,41.94L62.15,40.64L63.95,41.6C64.95,42.13 66.72,43.08 67.93,43.73ZM59,44.07C57.97,47.64 55.88,52.24 54.93,53.04C54.71,53.22 54.28,52.97 52.87,51.83C51.88,51.03 50.87,50.24 50.6,50.06C50.34,49.88 50.15,49.69 50.19,49.64C50.92,48.91 59.42,42.06 59.46,42.17C59.49,42.24 59.28,43.1 59,44.07ZM78.32,50.28C79.93,51.35 83.49,54.54 83.3,54.74C83.25,54.79 79.63,55.97 75.27,57.34C70.91,58.72 66.05,60.28 64.47,60.81C62.88,61.34 61.58,61.76 61.57,61.74C61.55,61.72 62.66,60.46 64.03,58.93C67.6,54.95 71.27,50.68 72.57,49L73.69,47.55L75.16,48.34C75.95,48.78 77.39,49.66 78.32,50.28ZM70.06,47.99C69.96,48.12 69,49.34 67.92,50.71C66.84,52.07 64.26,55.39 62.16,58.08L58.35,62.98L58.22,62.15C57.98,60.54 57.12,57.41 56.63,56.34L56.14,55.27L58.56,54.06C61.06,52.81 66.27,49.98 68.71,48.56C70.25,47.66 70.35,47.62 70.06,47.99ZM49.85,53.91C50.84,54.42 51.77,55.08 51.77,55.29C51.77,55.61 45.32,60.59 45.15,60.4C45.11,60.36 45.69,59.21 46.44,57.84C47.2,56.47 47.96,54.94 48.14,54.42C48.32,53.9 48.6,53.48 48.74,53.48C48.9,53.48 49.4,53.68 49.85,53.91ZM55.35,60.04C55.8,60.91 56.26,63.36 56.02,63.58C55.92,63.67 53.26,64.93 50.09,66.38C46.92,67.83 42.81,69.78 40.92,70.72C39.04,71.66 37.61,72.32 37.75,72.2C37.89,72.07 39.96,70.34 42.36,68.34C47,64.48 52.29,59.87 53.26,58.85L53.84,58.24L54.41,58.79C54.73,59.09 55.15,59.65 55.35,60.04ZM50.14,59.99C49.68,60.4 47.2,62.57 44.64,64.79C42.08,67 39,69.68 37.8,70.73C35.38,72.84 35.38,72.84 38.47,68.81C40.86,65.69 42.11,64.53 45.54,62.23C47.21,61.11 50.53,59.24 50.85,59.24C50.92,59.23 50.6,59.58 50.14,59.99ZM74.17,62.11C74.3,62.76 74.45,64.8 74.52,66.62L74.64,69.94L73.87,69.58C71.21,68.35 63.74,64.14 64.02,64.03C65.65,63.38 73.72,60.7 73.81,60.79C73.88,60.86 74.04,61.45 74.17,62.11ZM67.83,68.05C70.94,69.88 73.51,71.4 73.55,71.43C73.59,71.46 73.18,71.8 72.67,72.18C71.68,72.91 61.13,78.36 60.99,78.22C60.95,78.18 61.09,77.27 61.3,76.22C61.73,74.1 62.12,67.78 61.93,65.77C61.87,65.06 61.89,64.56 61.99,64.62C62.1,64.68 64.72,66.22 67.83,68.05ZM59.23,66.71C59.47,68.68 59.18,72.64 58.65,74.7C58.02,77.12 57.66,78.13 57.39,78.22C57.02,78.35 54.72,76.25 53.31,74.5C51.89,72.74 50.03,69.42 50.31,69.15C50.48,68.99 58.7,65.6 58.95,65.59C59.03,65.58 59.16,66.09 59.23,66.71ZM49.15,71.66C50.02,73.46 52.01,76.06 54.19,78.26C55.59,79.67 55.94,80.13 55.72,80.27C54.74,80.93 50.37,82.98 47.61,84.06C44.26,85.38 39.91,86.88 39.81,86.76C39.77,86.72 40.77,84.9 42.03,82.72C44.76,77.98 48.21,71.28 48.21,70.73C48.21,70.03 48.5,70.31 49.15,71.66ZM43.99,71.77C43.94,71.91 43.52,72.95 43.07,74.1C41.13,79.02 37.36,85.7 36.52,85.7C35.87,85.7 34.91,81.81 34.64,78.07L34.5,76.19L39.11,73.86C41.65,72.58 43.8,71.53 43.91,71.53C44,71.52 44.04,71.63 43.99,71.77ZM74.77,76.32C74.79,79.15 73.6,86 72.97,86.69C72.71,86.98 69.78,85.9 67.15,84.54C64.79,83.32 60.91,80.91 60.91,80.67C60.91,80.6 61.5,80.3 62.24,79.99C63.64,79.4 70.15,75.92 72.91,74.29L74.5,73.35L74.64,74.07C74.69,74.46 74.76,75.49 74.77,76.32ZM31.34,79.59C31.61,81.83 32.3,84.57 33.16,86.75C33.51,87.64 33.76,88.41 33.72,88.45C33.38,88.76 19.53,92.57 17.7,92.86L16.83,93L16.96,92.33C17.15,91.38 18.49,88.64 19.49,87.16C20.73,85.32 23.8,82.24 25.83,80.81C27.34,79.74 30.98,77.62 31.09,77.74C31.1,77.75 31.22,78.58 31.34,79.59ZM62.76,84.31C67.04,86.36 68.66,87.07 70.71,87.78L72.28,88.32L71.29,88.82C65.68,91.66 55.76,95.71 53.19,96.21C52.62,96.32 52.54,96.29 52.65,96.01C53.09,94.86 59.01,82.63 59.12,82.63C59.19,82.62 60.84,83.39 62.76,84.31ZM55.23,83.85C54.93,85.29 53.3,89.96 52.35,92.08C51.53,93.92 49.63,97.51 49.29,97.85C49.14,98 45.76,96.09 44.16,94.95C42.36,93.67 38.42,89.87 38.53,89.52C38.57,89.39 40.97,88.47 43.86,87.47C49.95,85.37 53.36,84.1 54.35,83.59C55.31,83.09 55.39,83.12 55.23,83.85ZM72.26,90.3C72.2,90.72 71.86,92.56 71.49,94.42C70.33,100.25 68.92,104.23 68.02,104.23C66.78,104.23 58.29,102.17 55.55,101.2C53.69,100.54 52.08,99.79 51.55,99.32C51.22,99.03 51.39,98.93 53.83,97.93C61.68,94.73 70.73,90.65 71.71,89.87C72.28,89.42 72.37,89.48 72.26,90.3ZM32.54,92.08C31.65,93.67 29.82,96.3 26.34,101L23.37,105L22.48,104.36C21.23,103.47 19.25,101.31 18.42,99.94C17.53,98.47 16.92,96.66 16.85,95.28L16.79,94.21L18.26,94.06C20.25,93.86 25.81,92.71 29.78,91.67C31.58,91.2 33.08,90.84 33.12,90.87C33.15,90.91 32.89,91.45 32.54,92.08ZM41.17,96.19C42.16,96.9 43.52,97.8 44.22,98.21L45.49,98.95L44.92,99.19C44.6,99.32 39.99,101 34.66,102.93C25.56,106.22 24.96,106.41 24.71,106.07C24.56,105.87 24.46,105.66 24.48,105.59C24.5,105.52 26.96,102.35 29.95,98.52L35.38,91.57L37.38,93.24C38.5,94.17 40.18,95.48 41.17,96.19ZM43.41,106.64C41.42,109.61 39.74,112.12 39.68,112.2C39.53,112.4 36.35,111.65 33.97,110.86C31.47,110.02 28.39,108.46 27.19,107.43L26.32,106.68L28.28,106.15C36.31,103.96 46.93,101.15 46.98,101.19C47.02,101.2 45.4,103.67 43.41,106.64ZM52.97,102.14C57.22,103.6 61.1,104.43 66.13,104.97L67.52,105.12L63.77,106.47C54.41,109.85 46.83,112.22 43.01,112.96C41.94,113.17 40.96,113.34 40.85,113.34C40.74,113.34 41.51,112.29 42.56,111.02C45.42,107.53 48.52,103.56 49.34,102.34C49.74,101.75 50.14,101.25 50.23,101.25C50.32,101.26 51.54,101.65 52.97,102.14ZM66.92,110.02C65.31,114.18 64.13,116.71 63.71,116.87C62.91,117.18 51.86,115.55 48.49,114.64C46.25,114.03 44.82,113.44 45.24,113.29C45.4,113.23 47,112.86 48.81,112.45C54.66,111.13 63.58,108.42 67.27,106.84C67.75,106.64 68.17,106.49 68.2,106.52C68.22,106.55 67.65,108.12 66.92,110.02Z" style="fill-rule:nonzero;"/>
            <path d="M77.677,61.847L80.203,61.086C92.73,57.351 104.849,54.409 114.862,52.671C116.784,52.337 118.455,51.977 118.842,51.841C119.294,51.681 119.538,51.459 119.651,51.347C120.142,50.865 120.522,50.09 120.287,48.973C120.043,47.818 118.505,45.392 116.106,42.918C106.438,32.943 89.391,25.275 69.348,22.045C66.474,21.58 66.063,21.544 64.995,20.134C62.858,17.302 60.895,12.438 58.15,3.578C58.148,3.571 58.146,3.565 58.144,3.558C57.954,2.966 57.651,2.622 57.324,2.382C57.002,2.145 56.327,1.704 54.639,2.246C54.632,2.248 54.625,2.25 54.618,2.253C54.288,2.362 52.522,2.931 50.667,3.54C44.492,5.559 39.402,7.782 35.923,9.895C33.302,11.488 31.544,13.092 30.725,14.488C30.724,14.49 30.723,14.491 30.722,14.493C29.658,16.32 29.576,17.813 30.208,19.29C30.748,20.573 31.65,21.633 34.365,23.553C34.367,23.554 34.369,23.556 34.371,23.557C35.342,24.239 36.992,25.67 38.066,26.744C38.066,26.745 38.067,26.745 38.067,26.745C43.153,31.822 45.629,38.044 45.352,45.081C45.028,53.233 41.144,61.354 33.831,69.515C31.212,72.437 28.519,74.865 23.36,78.999C18.764,82.676 16.283,85.074 14.58,87.383C14.579,87.384 14.579,87.385 14.578,87.387C11.672,91.347 10.718,95.122 11.488,98.613C12.242,102.03 14.701,105.272 19.043,108.156C25.936,112.741 38.064,116.607 52.373,118.679C57.294,119.394 62.86,119.798 64.196,119.598C64.189,119.599 65.079,119.469 65.079,119.469C65.696,119.379 66.236,119.006 66.538,118.461L67.939,115.941C75.189,102.884 78.838,90.569 79.279,77.829C79.279,77.829 79.279,77.829 79.279,77.828C79.467,72.345 78.804,65.908 77.677,61.847ZM55.25,4.15C54.92,4.26 53.15,4.83 51.29,5.44C41.29,8.71 34.21,12.5 32.45,15.5C31.78,16.65 31.65,17.58 32.05,18.51C32.49,19.56 33.3,20.35 35.52,21.92C36.56,22.65 38.33,24.18 39.48,25.33C44.98,30.82 47.65,37.55 47.35,45.16C47.01,53.72 43,62.28 35.32,70.85C32.64,73.84 29.89,76.33 24.61,80.56C20.21,84.08 17.82,86.36 16.19,88.57C11.2,95.37 12.53,101.43 20.15,106.49C26.87,110.96 38.71,114.68 52.66,116.7C57.34,117.38 62.63,117.81 63.9,117.62L64.79,117.49L66.19,114.97C73.27,102.22 76.85,90.2 77.28,77.76C77.47,72.21 76.77,65.64 75.58,61.8C75.36,61.11 75.2,60.52 75.23,60.5C75.25,60.48 77.23,59.89 79.63,59.17C92.24,55.41 104.44,52.45 114.52,50.7C116.48,50.36 118.16,50.01 118.25,49.92C118.79,49.39 117.22,46.94 114.67,44.31C105.24,34.58 88.58,27.17 69.03,24.02C65.26,23.41 64.8,23.19 63.4,21.34C61.18,18.4 59.09,13.37 56.24,4.17C56.15,3.89 56.06,3.89 55.25,4.15ZM66.92,110.02C65.31,114.18 64.13,116.71 63.71,116.87C62.91,117.18 51.86,115.55 48.49,114.64C46.25,114.03 44.82,113.44 45.24,113.29C45.4,113.23 47,112.86 48.81,112.45C54.66,111.13 63.58,108.42 67.27,106.84C67.75,106.64 68.17,106.49 68.2,106.52C68.22,106.55 67.65,108.12 66.92,110.02ZM64.815,109.908C63.93,112.133 63.056,114.005 62.635,114.879C60.612,114.74 56.286,114.125 52.872,113.513C56.892,112.462 61.447,111.085 64.815,109.908ZM52.97,102.14C57.22,103.6 61.1,104.43 66.13,104.97L67.52,105.12L63.77,106.47C54.41,109.85 46.83,112.22 43.01,112.96C41.94,113.17 40.96,113.34 40.85,113.34C40.74,113.34 41.51,112.29 42.56,111.02C45.42,107.53 48.52,103.56 49.34,102.34C49.74,101.75 50.14,101.25 50.23,101.25C50.32,101.26 51.54,101.65 52.97,102.14ZM43.41,106.64C41.42,109.61 39.74,112.12 39.68,112.2C39.53,112.4 36.35,111.65 33.97,110.86C31.47,110.02 28.39,108.46 27.19,107.43L26.32,106.68L28.28,106.15C36.31,103.96 46.93,101.15 46.98,101.19C47.02,101.2 45.4,103.67 43.41,106.64ZM50.923,103.566C51.348,103.704 51.843,103.868 52.322,104.032L52.32,104.032C54.666,104.837 56.902,105.458 59.269,105.947C53.795,107.863 49.129,109.351 45.756,110.254C48.037,107.418 50.17,104.661 50.923,103.566ZM42.495,104.407C42.25,104.776 42,105.152 41.748,105.527C40.49,107.405 39.359,109.096 38.695,110.087C37.606,109.859 35.965,109.415 34.604,108.963C33.459,108.578 32.176,108.035 31.049,107.47C35.019,106.394 39.301,105.25 42.495,104.407ZM41.17,96.19C42.16,96.9 43.52,97.8 44.22,98.21L45.49,98.95L44.92,99.19C44.6,99.32 39.99,101 34.66,102.93C25.56,106.22 24.96,106.41 24.71,106.07C24.56,105.87 24.46,105.66 24.48,105.59C24.5,105.52 26.96,102.35 29.95,98.52L35.38,91.57L37.38,93.24C38.5,94.17 40.18,95.48 41.17,96.19ZM32.54,92.08C31.65,93.67 29.82,96.3 26.34,101L23.37,105L22.48,104.36C21.23,103.47 19.25,101.31 18.42,99.94C17.53,98.47 16.92,96.66 16.85,95.28L16.79,94.21L18.26,94.06C20.25,93.86 25.81,92.71 29.78,91.67C31.58,91.2 33.08,90.84 33.12,90.87C33.15,90.91 32.89,91.45 32.54,92.08ZM72.26,90.3C72.2,90.72 71.86,92.56 71.49,94.42C70.33,100.25 68.92,104.23 68.02,104.23C66.78,104.23 58.29,102.17 55.55,101.2C53.69,100.54 52.08,99.79 51.55,99.32C51.22,99.03 51.39,98.93 53.83,97.93C61.68,94.73 70.73,90.65 71.71,89.87C72.28,89.42 72.37,89.48 72.26,90.3ZM40.992,98.504C39.14,99.178 36.651,100.082 33.98,101.049C32.082,101.736 30.49,102.298 29.197,102.746C29.926,101.806 30.727,100.775 31.526,99.751C31.526,99.751 35.684,94.429 35.684,94.429L36.102,94.779C37.255,95.736 38.985,97.084 40.004,97.815C40.309,98.034 40.647,98.269 40.992,98.504ZM28.975,93.938C27.966,95.401 26.589,97.303 24.733,99.809L22.968,102.186C21.946,101.276 20.713,99.865 20.131,98.904C19.582,97.998 19.151,96.936 18.957,95.99C21.052,95.712 25.383,94.827 28.975,93.938ZM69.702,93.146L69.528,94.03C68.85,97.44 67.632,100.88 67.17,102.123C64.724,101.697 58.454,100.106 56.218,99.315L55.954,99.219C61.031,97.119 66.369,94.743 69.702,93.146ZM55.23,83.85C54.93,85.29 53.3,89.96 52.35,92.08C51.53,93.92 49.63,97.51 49.29,97.85C49.14,98 45.76,96.09 44.16,94.95C42.36,93.67 38.42,89.87 38.53,89.52C38.57,89.39 40.97,88.47 43.86,87.47C49.95,85.37 53.36,84.1 54.35,83.59C55.31,83.09 55.39,83.12 55.23,83.85ZM62.76,84.31C67.04,86.36 68.66,87.07 70.71,87.78L72.28,88.32L71.29,88.82C65.68,91.66 55.76,95.71 53.19,96.21C52.62,96.32 52.54,96.29 52.65,96.01C53.09,94.86 59.01,82.63 59.12,82.63C59.19,82.62 60.84,83.39 62.76,84.31ZM52.315,86.578C51.738,88.257 51.029,90.137 50.525,91.262C50.524,91.263 50.524,91.265 50.523,91.266C50.093,92.23 49.151,94.008 48.489,95.232C47.465,94.66 46.073,93.857 45.321,93.321C45.32,93.321 45.32,93.32 45.319,93.32C44.518,92.75 43.083,91.396 41.951,90.288C42.73,89.996 43.625,89.668 44.514,89.36C47.917,88.187 50.502,87.262 52.315,86.578ZM60.024,85.232C60.59,85.495 61.251,85.805 61.896,86.114C61.896,86.114 61.896,86.114 61.896,86.114C64.319,87.274 65.912,88.015 67.206,88.568C63.557,90.257 59.227,92.064 56.159,93.187C57.396,90.592 59.035,87.218 60.024,85.232ZM31.34,79.59C31.61,81.83 32.3,84.57 33.16,86.75C33.51,87.64 33.76,88.41 33.72,88.45C33.38,88.76 19.53,92.57 17.7,92.86L16.83,93L16.96,92.33C17.15,91.38 18.49,88.64 19.49,87.16C20.73,85.32 23.8,82.24 25.83,80.81C27.34,79.74 30.98,77.62 31.09,77.74C31.1,77.75 31.22,78.58 31.34,79.59ZM29.505,80.88C29.839,82.939 30.448,85.246 31.186,87.187C28.405,88.02 23.194,89.457 19.976,90.278C20.357,89.551 20.782,88.82 21.147,88.28C21.148,88.279 21.148,88.278 21.149,88.278C22.288,86.586 25.116,83.76 26.982,82.445C26.983,82.444 26.985,82.443 26.986,82.442C27.55,82.042 28.563,81.43 29.505,80.88ZM49.15,71.66C50.02,73.46 52.01,76.06 54.19,78.26C55.59,79.67 55.94,80.13 55.72,80.27C54.74,80.93 50.37,82.98 47.61,84.06C44.26,85.38 39.91,86.88 39.81,86.76C39.77,86.72 40.77,84.9 42.03,82.72C44.76,77.98 48.21,71.28 48.21,70.73C48.21,70.03 48.5,70.31 49.15,71.66ZM74.77,76.32C74.79,79.15 73.6,86 72.97,86.69C72.71,86.98 69.78,85.9 67.15,84.54C64.79,83.32 60.91,80.91 60.91,80.67C60.91,80.6 61.5,80.3 62.24,79.99C63.64,79.4 70.15,75.92 72.91,74.29L74.5,73.35L74.64,74.07C74.69,74.46 74.76,75.49 74.77,76.32ZM43.99,71.77C43.94,71.91 43.52,72.95 43.07,74.1C41.13,79.02 37.36,85.7 36.52,85.7C35.87,85.7 34.91,81.81 34.64,78.07L34.5,76.19L39.11,73.86C41.65,72.58 43.8,71.53 43.91,71.53C44,71.52 44.04,71.63 43.99,71.77ZM72.762,76.684C72.686,78.557 71.979,82.294 71.582,84.271C70.568,83.89 69.15,83.323 68.069,82.763C68.069,82.763 68.069,82.763 68.068,82.763C67.197,82.313 65.984,81.589 64.899,80.918C67.089,79.801 70.477,77.981 72.762,76.684ZM48.627,74.682C49.7,76.261 51.158,78.035 52.719,79.616C51.018,80.447 48.614,81.519 46.881,82.198C46.88,82.198 46.878,82.199 46.877,82.199C46.012,82.54 45.008,82.909 44.026,83.258C45.627,80.455 47.419,77.092 48.627,74.682ZM40.253,75.525L40.011,75.646C40.011,75.646 36.594,77.373 36.594,77.373L36.635,77.926C36.711,78.978 36.92,80.2 37.146,81.293C38.101,79.65 39.302,77.501 40.253,75.525ZM59.23,66.71C59.47,68.68 59.18,72.64 58.65,74.7C58.02,77.12 57.66,78.13 57.39,78.22C57.02,78.35 54.72,76.25 53.31,74.5C51.89,72.74 50.03,69.42 50.31,69.15C50.48,68.99 58.7,65.6 58.95,65.59C59.03,65.58 59.16,66.09 59.23,66.71ZM67.83,68.05C70.94,69.88 73.51,71.4 73.55,71.43C73.59,71.46 73.18,71.8 72.67,72.18C71.68,72.91 61.13,78.36 60.99,78.22C60.95,78.18 61.09,77.27 61.3,76.22C61.73,74.1 62.12,67.78 61.93,65.77C61.87,65.06 61.89,64.56 61.99,64.62C62.1,64.68 64.72,66.22 67.83,68.05ZM57.32,68.363C57.333,70.242 57.088,72.743 56.714,74.199C56.645,74.462 56.575,74.719 56.504,74.963C55.914,74.4 55.284,73.762 54.867,73.245C54.867,73.245 54.867,73.244 54.867,73.244C54.278,72.515 53.483,71.168 52.927,70.178C54.204,69.637 55.935,68.922 57.32,68.363ZM63.961,68.095L66.816,69.774L69.808,71.538C68.139,72.448 65.579,73.779 63.522,74.816C63.742,72.874 63.917,70.181 63.961,68.095ZM55.35,60.04C55.8,60.91 56.26,63.36 56.02,63.58C55.92,63.67 53.26,64.93 50.09,66.38C46.92,67.83 42.81,69.78 40.92,70.72C39.04,71.66 37.61,72.32 37.75,72.2C37.89,72.07 39.96,70.34 42.36,68.34C47,64.48 52.29,59.87 53.26,58.85L53.84,58.24L54.41,58.79C54.73,59.09 55.15,59.65 55.35,60.04ZM50.14,59.99C49.68,60.4 47.2,62.57 44.64,64.79C42.08,67 39,69.68 37.8,70.73C35.38,72.84 35.38,72.84 38.47,68.81C40.86,65.69 42.11,64.53 45.54,62.23C47.21,61.11 50.53,59.24 50.85,59.24C50.92,59.23 50.6,59.58 50.14,59.99ZM74.17,62.11C74.3,62.76 74.45,64.8 74.52,66.62L74.64,69.94L73.87,69.58C71.21,68.35 63.74,64.14 64.02,64.03C65.65,63.38 73.72,60.7 73.81,60.79C73.88,60.86 74.04,61.45 74.17,62.11ZM72.313,63.314C71.269,63.648 69.953,64.082 68.7,64.505C69.936,65.209 71.325,65.99 72.519,66.636C72.473,65.449 72.396,64.171 72.313,63.314ZM53.674,61.214C52.918,61.907 51.851,62.855 50.611,63.937C51.909,63.334 53.125,62.759 53.942,62.369C53.869,61.973 53.775,61.525 53.674,61.214ZM70.06,47.99C69.96,48.12 69,49.34 67.92,50.71C66.84,52.07 64.26,55.39 62.16,58.08L58.35,62.98L58.22,62.15C57.98,60.54 57.12,57.41 56.63,56.34L56.14,55.27L58.56,54.06C61.06,52.81 66.27,49.98 68.71,48.56C70.25,47.66 70.35,47.62 70.06,47.99ZM78.32,50.28C79.93,51.35 83.49,54.54 83.3,54.74C83.25,54.79 79.63,55.97 75.27,57.34C70.91,58.72 66.05,60.28 64.47,60.81C62.88,61.34 61.58,61.76 61.57,61.74C61.55,61.72 62.66,60.46 64.03,58.93C67.6,54.95 71.27,50.68 72.57,49L73.69,47.55L75.16,48.34C75.95,48.78 77.39,49.66 78.32,50.28ZM49.85,53.91C50.84,54.42 51.77,55.08 51.77,55.29C51.77,55.61 45.32,60.59 45.15,60.4C45.11,60.36 45.69,59.21 46.44,57.84C47.2,56.47 47.96,54.94 48.14,54.42C48.32,53.9 48.6,53.48 48.74,53.48C48.9,53.48 49.4,53.68 49.85,53.91ZM62.669,54.174C61.431,54.835 60.292,55.43 59.454,55.849L58.727,56.212C58.939,56.801 59.177,57.567 59.401,58.371L60.584,56.849L62.669,54.174ZM74.236,50.115C75.001,50.544 76.34,51.363 77.211,51.944C77.211,51.945 77.212,51.945 77.213,51.946C77.781,52.323 78.709,53.109 79.565,53.866C78.161,54.322 76.409,54.886 74.67,55.432C74.669,55.432 74.668,55.433 74.666,55.433C72.362,56.163 69.919,56.942 67.891,57.595C70.646,54.467 73.127,51.549 74.152,50.224L74.236,50.115ZM97.63,38.69C96.09,41.23 93.56,44.85 91.73,47.13C89.86,49.47 85.91,53.87 85.68,53.87C85.59,53.87 85.02,53.16 84.41,52.28C82.16,49.07 79.55,46.29 77.26,44.67C77.04,44.52 76.91,44.35 76.96,44.3C77.01,44.25 80.77,42.87 85.29,41.23C94.45,37.91 98.48,36.56 98.73,36.74C98.75,36.77 98.26,37.64 97.63,38.69ZM103.36,38.26C109.68,42.67 113.98,46.24 115.54,48.37C115.93,48.91 116.22,49.37 116.18,49.4C116.14,49.43 114.11,49.66 111.65,49.9C101.84,50.87 94.85,51.85 91.15,52.79C90.16,53.04 89.33,53.23 89.32,53.22C89.3,53.2 89.95,52.4 90.78,51.41C95.06,46.28 98.92,40.94 100.36,38.17C100.74,37.44 101.11,36.84 101.19,36.84C101.26,36.83 102.23,37.47 103.36,38.26ZM59,44.07C57.97,47.64 55.88,52.24 54.93,53.04C54.71,53.22 54.28,52.97 52.87,51.83C51.88,51.03 50.87,50.24 50.6,50.06C50.34,49.88 50.15,49.69 50.19,49.64C50.92,48.91 59.42,42.06 59.46,42.17C59.49,42.24 59.28,43.1 59,44.07ZM67.93,43.73C69.14,44.38 70.07,44.98 70.02,45.08C69.93,45.26 59.26,51.1 59.17,51.02C59.15,51 59.7,49.25 60.4,47.11C61.1,44.97 61.78,42.65 61.91,41.94L62.15,40.64L63.95,41.6C64.95,42.13 66.72,43.08 67.93,43.73ZM94.292,40.193C92.954,42.193 91.4,44.346 90.17,45.878C90.169,45.879 90.168,45.88 90.168,45.881C89.143,47.164 87.153,49.376 85.831,50.826C84.244,48.603 82.495,46.591 80.798,45.004C82.273,44.46 84.13,43.779 85.972,43.11C89.352,41.885 92.168,40.91 94.292,40.193ZM54.304,48.79L53.3,49.613L54.305,50.416C54.699,49.684 55.129,48.77 55.546,47.782L54.304,48.79ZM101.838,39.64L102.216,39.9C106.791,43.093 110.281,45.803 112.36,47.819L111.453,47.91C104.211,48.626 98.485,49.353 94.456,50.063C97.696,45.996 100.469,42.079 101.838,39.64ZM50.834,49.196L50.831,49.198L50.913,49.167L50.834,49.196ZM52.93,37.4C54.54,37.93 56.41,38.64 57.1,38.99C58.35,39.62 58.36,39.63 58,40.02C57.36,40.73 50.37,47.24 50.17,47.31C50.07,47.35 49.99,46.36 49.99,44.93C49.98,42.45 49.7,37.98 49.49,36.98C49.33,36.25 49.46,36.26 52.93,37.4ZM63.541,43.649C63.288,44.566 62.927,45.776 62.539,46.991L63.713,46.352C64.241,46.061 64.77,45.77 65.298,45.479L66.115,45.026L64.92,44.385L63.541,43.649ZM51.723,39.111C51.815,40.309 51.897,41.729 51.945,43.013L53.072,41.965C53.466,41.596 53.861,41.226 54.255,40.857L54.916,40.232C54.141,39.931 53.181,39.588 52.305,39.3L51.723,39.111ZM78.24,31.65C78.05,32.49 77.64,33.92 77.31,34.85C76.6,36.89 74.01,42.18 73.66,42.32C73.52,42.38 72.3,41.81 70.97,41.07C69.64,40.33 67.71,39.35 66.7,38.9L64.86,38.08L71.65,33.73C77.28,30.12 78.45,29.44 78.51,29.76C78.55,29.96 78.43,30.81 78.24,31.65ZM83.2,30.1C90.24,32.12 97.67,34.85 97.24,35.26C97.15,35.34 96.23,35.65 95.2,35.94C89.89,37.45 82.5,40 79.04,41.52C77.97,41.99 77.04,42.34 76.99,42.29C76.94,42.24 77.36,40.68 77.93,38.84C79.04,35.21 80.33,30.31 80.33,29.68C80.33,29.4 80.43,29.31 80.68,29.38C80.815,29.417 81.482,29.606 82.316,29.846L82.279,30.089C82.302,29.988 82.301,29.994 82.317,29.896L82.321,29.848L83.2,30.1ZM75.623,33.589L75.421,34.193C75.01,35.374 73.626,38.162 72.807,39.776C72.519,39.632 72.217,39.475 71.942,39.322C71.082,38.844 69.98,38.269 69.019,37.791L72.73,35.414C73.819,34.715 74.791,34.104 75.623,33.589ZM81.908,31.81L82.648,32.022C85.829,32.935 89.091,33.994 91.646,34.912C87.598,36.165 83.068,37.738 79.981,38.965C80.706,36.554 81.457,33.722 81.908,31.81ZM59.49,26.7C60.23,28.43 60.52,30.09 60.64,33.4C60.7,35.18 60.71,36.63 60.65,36.63C60.59,36.63 59.53,36.26 58.3,35.82C55.84,34.93 51.02,33.34 50.45,33.23C50.2,33.18 51.36,32.07 54.41,29.44C56.79,27.39 58.81,25.72 58.9,25.72C59,25.73 59.26,26.17 59.49,26.7ZM68.13,27.12C71.84,27.88 75.08,28.56 75.34,28.62C75.71,28.71 74.82,29.27 70.9,31.42C68.2,32.9 65.14,34.58 64.1,35.17C63.05,35.76 62.19,36.21 62.17,36.19C62.15,36.17 62.26,35.62 62.41,34.96C62.97,32.56 62.62,29.56 61.5,27.17C61.17,26.48 60.9,25.87 60.9,25.82C60.9,25.65 61.57,25.77 68.13,27.12ZM58.137,28.91C58.435,30.06 58.566,31.408 58.641,33.47L58.651,33.822C57.397,33.374 55.689,32.797 54.184,32.304C54.646,31.889 55.164,31.431 55.716,30.955C56.555,30.232 57.414,29.511 58.137,28.91ZM64.065,28.341C65.049,28.534 66.27,28.779 67.727,29.079L70.113,29.57L69.938,29.666C68.099,30.675 66.093,31.775 64.668,32.564C64.668,31.166 64.463,29.714 64.065,28.341ZM51.07,24.02C54.42,24.5 57.2,24.93 57.25,24.98C57.29,25.03 55.27,26.6 52.75,28.48C50.23,30.35 48.15,31.86 48.12,31.83C48.09,31.8 47.84,31.02 47.56,30.09C47.28,29.16 46.56,27.23 45.97,25.78C45.38,24.33 44.92,23.15 44.94,23.15C44.96,23.15 47.72,23.55 51.07,24.02ZM43.35,23.19C43.51,23.35 45.44,29.55 45.35,29.63C45.32,29.66 44.4,28.6 43.31,27.25C42.21,25.9 40.56,24.01 39.61,23.02L37.9,21.23L40.57,22.15C42.03,22.66 43.29,23.13 43.35,23.19ZM48.058,25.613C48.457,26.62 48.879,27.747 49.181,28.617C49.896,28.098 50.728,27.49 51.556,26.876C51.842,26.662 52.127,26.448 52.405,26.237L50.789,26L48.058,25.613ZM60.97,20.48C61.57,21.91 62.03,23.07 62.01,23.09C61.98,23.11 53.9,21.86 53.19,21.72C53.04,21.69 54.41,20.76 56.25,19.64C58.09,18.52 59.66,17.67 59.74,17.76C59.82,17.83 60.37,19.05 60.97,20.48ZM45.89,13.92C52.04,15.21 56.52,16.02 57.51,16.02C58.47,16.02 58.36,16.1 53.84,18.86C50.35,20.98 49.95,21.18 49.07,21.18L48.11,21.18L45.53,18.56C42.4,15.39 40.28,13.07 40.28,12.81C40.28,12.7 40.34,12.67 40.43,12.72C40.51,12.76 42.98,13.31 45.89,13.92ZM58.639,20.562L58.843,20.594L58.792,20.476L58.639,20.562ZM41.35,16.83C42.86,18.59 44.03,20.07 43.97,20.14C43.84,20.27 39.53,19.2 36.89,18.39C34.59,17.68 34.31,17.44 34.92,16.66C35.32,16.14 38.29,13.66 38.51,13.65C38.57,13.64 39.84,15.06 41.35,16.83ZM45.77,15.938C46.151,16.335 46.547,16.744 46.953,17.155L48.947,19.18L49.07,19.18C49.33,19.18 49.485,19.087 49.956,18.833C50.538,18.518 51.351,18.031 52.581,17.284C50.702,16.94 48.387,16.485 45.77,15.938ZM38.09,16.494L37.942,16.616L38.702,16.83L38.274,16.345L38.09,16.494ZM61.205,16.399L61.225,16.421L61.184,16.375L61.205,16.399ZM56.55,7.61C57.65,10.6 58.32,12.95 58.32,13.78L58.32,14.43L57.39,14.32C52.35,13.74 44.31,12.49 42.6,12.03C42.16,11.91 41.91,11.74 41.99,11.61C42.12,11.4 43.83,10.58 48.91,8.27C53.65,6.12 55.45,5.32 55.59,5.31C55.65,5.31 56.08,6.34 56.55,7.61ZM54.536,7.938L54.674,8.303C55.23,9.815 55.686,11.138 55.975,12.134C53.381,11.807 50.339,11.367 47.832,10.965C48.412,10.696 49.047,10.405 49.737,10.091C51.833,9.14 53.449,8.42 54.536,7.938Z" style="fill:rgb(255,242,242);"/>
        </g>
    </g>
</svg>
