<?xml version="1.0" encoding="UTF-8" standalone="no"?>
<!DOCTYPE svg PUBLIC "-//W3C//DTD SVG 1.1//EN" "http://www.w3.org/Graphics/SVG/1.1/DTD/svg11.dtd">
<svg width="100%" height="100%" viewBox="0 0 127 69" version="1.1" xmlns="http://www.w3.org/2000/svg" xmlns:xlink="http://www.w3.org/1999/xlink" xml:space="preserve" xmlns:serif="http://www.serif.com/" style="fill-rule:evenodd;clip-rule:evenodd;stroke-linejoin:round;stroke-miterlimit:2;">
    <g transform="matrix(1,0,0,1,-0.842879,-29.5379)">
        <g transform="matrix(0.990465,0,0,0.990465,0.611731,0.610999)">
            <path d="M99.438,45.906C97.845,53.238 92.481,77.642 92.481,77.642L103.247,77.642C103.892,74.634 104.393,71.865 105.127,68.807C106.424,63.387 107.879,61.241 111.727,61.241C113.424,61.241 115.18,61.818 115.18,64.136C115.18,65.19 112.76,75.541 112.335,77.643L123.049,77.643C123.049,77.643 126.371,61.527 126.399,61.343C126.511,60.801 126.754,59.21 126.754,59.21C126.754,55.36 121.744,53.545 119.137,53.47C117.251,53.417 118.672,53.438 116.75,53.47C113.665,53.523 109.565,55.237 107.763,57.076L107.56,57.228L107.662,56.974L110.099,46.108C110.089,46.031 110.052,45.959 109.996,45.905L99.436,45.905L99.438,45.906ZM48.458,53.166C47.402,53.15 45.663,53.151 42.872,53.218C37.292,53.351 28.959,55.07 28.959,63.068C28.959,67.592 33.159,67.986 36.879,68.35C39.789,68.637 42.671,68.977 45.511,69.264C46.329,69.34 47.136,69.524 47.136,70.432C47.136,71.972 45.866,72.459 44.089,72.615C42.313,72.772 41.906,72.615 41.906,72.615C40.786,72.615 38.87,71.938 39.113,70.33L26.47,70.33L26.47,72.21C26.475,78.26 36.24,78.283 38.048,78.505L41.196,78.505L46.02,78.353C52.46,77.928 59.43,75.998 59.73,68.299C59.938,62.987 53.15,63.139 50.184,62.814L49.372,62.814C49.22,62.814 44.609,62.346 42.314,62.104C41.964,62.064 40.384,61.831 40.384,60.884C40.384,59.004 43.841,59.056 44.599,59.056C45.817,59.056 48.453,59.004 48.356,61.086L60.29,61.086C60.314,60.643 60.493,60.244 60.493,59.766C60.493,54.412 53.623,53.396 49.881,53.216C49.881,53.216 49.515,53.183 48.459,53.166L48.458,53.166ZM80.548,53.166C80.076,53.149 79.43,53.162 76.638,53.218C71.048,53.33 62.675,55.12 62.675,63.12C62.675,67.643 66.877,68.037 70.595,68.4C73.505,68.688 76.387,69.028 79.228,69.315C80.046,69.391 80.853,69.575 80.853,70.483C80.853,72.023 79.269,72.573 77.806,72.666C76.342,72.759 75.623,72.666 75.623,72.666C74.501,72.666 72.587,72.039 72.83,70.432L60.187,70.432L60.187,72.312C60.177,78.032 69.917,78.407 71.764,78.506L74.912,78.608L79.736,78.456C86.176,78.033 93.121,76.099 93.446,68.402C93.66,63.326 87.106,63.395 84.001,62.969L83.088,62.866C82.936,62.866 78.325,62.448 76.03,62.206C75.68,62.168 74.15,61.883 74.15,60.936C74.15,59.058 77.557,59.109 78.314,59.109C79.534,59.109 82.169,59.057 82.072,61.139L94.005,61.139C94.029,60.696 94.208,60.297 94.208,59.819C94.208,54.464 87.304,53.429 83.596,53.321C81.326,53.251 81.022,53.184 80.549,53.166L80.548,53.166ZM19.777,45.246C19.777,43.288 18.39,41.793 16.324,41.793C14.386,41.793 12.82,43.288 12.82,45.246C12.82,47.081 14.31,48.75 16.273,48.75C18.129,48.75 19.777,47.288 19.777,45.246ZM29.273,37.07C29.273,35.58 28.298,33.67 26.226,33.67C24.341,33.67 23.382,35.325 23.382,36.817C23.382,38.26 24.402,40.371 26.429,40.371C28.313,40.371 29.272,38.515 29.272,37.071L29.273,37.07ZM20.787,92.367C19.059,92.367 16.779,94.625 16.779,96.327C16.779,97.193 17.183,97.647 18.125,97.647C19.357,97.647 20.972,96.604 21.738,95.057C21.888,94.754 21.998,94.241 21.998,94.144L21.998,93.281C21.998,92.561 21.291,92.368 20.785,92.368L20.787,92.367ZM13.43,88.153C11.52,88.153 8.86,90.145 8.86,92.368C8.86,93.468 9.544,93.993 10.536,93.993C12.372,93.993 15.258,92.068 15.258,89.728C15.258,88.574 14.451,88.153 13.43,88.153ZM8.15,60.885C9.955,60.885 12.465,59.638 12.465,57.077C12.465,55.143 10.871,53.929 9.115,53.929C7.205,53.929 4.747,55.254 4.747,57.736C4.747,59.646 6.29,60.884 8.149,60.884L8.15,60.885ZM10.333,81.755C10.333,80.263 9.229,79.673 7.997,79.673C6.197,79.673 3.072,81.403 3.072,83.888C3.072,85.29 4.027,85.918 5.357,85.918C7.06,85.918 10.333,84.375 10.333,81.755ZM9.114,70.177C9.114,68.4 7.664,67.587 6.118,67.587C6.02,67.587 5.948,67.557 5.558,67.587C3.326,67.774 1.243,69.697 1.243,71.649C1.243,73.474 2.903,74.239 4.34,74.239C6.2,74.239 9.114,72.812 9.114,70.176L9.114,70.177ZM28.867,93.027C27.247,93.027 25.363,95.191 25.363,96.683C25.363,96.903 25.367,97.333 25.769,97.597C26.189,97.873 26.941,97.897 27.849,97.292C29.069,96.479 29.881,95.04 29.881,94.092C29.881,93.572 29.548,93.027 28.866,93.027L28.867,93.027ZM51.87,34.836C50.51,34.836 50.04,36.946 50.04,37.629C50.04,38.305 50.275,39.811 51.463,39.811C52.857,39.811 53.291,37.701 53.291,37.018C53.291,36.444 52.984,34.835 51.871,34.834L51.87,34.836ZM56.286,40.422C55.03,40.422 54.56,42.485 54.56,43.112C54.56,43.638 54.76,44.89 55.728,44.89C56.95,44.89 57.404,42.878 57.404,42.25C57.404,41.833 57.219,40.422 56.286,40.422ZM45.217,31.028C43.637,31.028 43.135,33.005 43.135,33.922C43.135,34.526 43.507,36.678 45.015,36.664C46.521,36.649 47.095,34.691 47.095,33.719C47.095,32.963 46.733,31.027 45.217,31.027L45.217,31.028ZM43.084,86.782C41.651,86.782 40.647,88.972 40.647,89.829C40.647,90.276 40.761,90.742 41.409,90.742C42.826,90.742 43.845,88.589 43.845,87.695C43.845,87.277 43.692,86.781 43.083,86.781L43.084,86.782ZM36.382,30.216C34.655,30.216 33.995,32.266 33.995,33.364C33.995,34.517 34.845,36.512 36.535,36.512C38.247,36.512 38.901,34.465 38.87,33.415C38.83,32.071 38.266,30.215 36.382,30.215L36.382,30.216ZM36.382,90.895C34.812,90.895 33.488,93.145 33.488,94.297C33.488,94.877 33.752,95.211 34.351,95.211C35.771,95.211 37.246,93.041 37.246,91.911C37.246,91.415 37.144,90.896 36.383,90.896L36.382,90.895Z" style="fill:rgb(35,31,32);fill-rule:nonzero;stroke:white;stroke-width:2.02px;"/>
        </g>
    </g>
</svg>
