<?xml version="1.0" encoding="UTF-8" standalone="no"?>
<!DOCTYPE svg PUBLIC "-//W3C//DTD SVG 1.1//EN" "http://www.w3.org/Graphics/SVG/1.1/DTD/svg11.dtd">
<svg width="100%" height="100%" viewBox="0 0 128 128" version="1.1" xmlns="http://www.w3.org/2000/svg" xmlns:xlink="http://www.w3.org/1999/xlink" xml:space="preserve" xmlns:serif="http://www.serif.com/" style="fill-rule:evenodd;clip-rule:evenodd;stroke-linejoin:round;stroke-miterlimit:2;">
    <g transform="matrix(1.49988,0,0,1.49988,-31.992,-31.992)">
        <g transform="matrix(1.86667,0,0,1.86667,18.824,31.7229)">
            <path d="M35.938,9.312L35.749,8.361C35.58,7.507 35.195,6.7 34.319,6.392C34.038,6.293 33.719,6.251 33.504,6.046C33.289,5.842 33.225,5.525 33.175,5.23C33.083,4.69 32.996,4.15 32.902,3.61C32.82,3.147 32.755,2.626 32.543,2.201C32.266,1.63 31.692,1.296 31.121,1.075C30.828,0.966 30.53,0.873 30.227,0.798C28.8,0.422 27.3,0.283 25.832,0.204C24.071,0.107 22.304,0.137 20.547,0.292C19.239,0.411 17.861,0.555 16.618,1.008C16.163,1.173 15.695,1.372 15.35,1.723C14.926,2.154 14.788,2.821 15.097,3.359C15.317,3.741 15.69,4.011 16.085,4.189C16.6,4.419 17.138,4.594 17.689,4.711C19.225,5.051 20.816,5.184 22.385,5.241C24.124,5.311 25.867,5.254 27.597,5.071C28.025,5.024 28.453,4.967 28.879,4.901C29.382,4.824 29.704,4.168 29.556,3.71C29.379,3.163 28.903,2.951 28.364,3.033C28.285,3.046 28.206,3.057 28.127,3.069L28.07,3.077C27.887,3.1 27.705,3.122 27.523,3.142C27.146,3.182 26.768,3.216 26.39,3.241C25.542,3.3 24.692,3.328 23.842,3.329C23.008,3.329 22.172,3.305 21.339,3.251C20.959,3.226 20.58,3.194 20.202,3.156C20.03,3.138 19.858,3.119 19.687,3.097L19.523,3.077L19.488,3.072L19.318,3.047C18.973,2.995 18.627,2.935 18.284,2.863C18.25,2.855 18.219,2.836 18.197,2.808C18.175,2.781 18.163,2.746 18.163,2.711C18.163,2.676 18.175,2.641 18.197,2.614C18.219,2.586 18.25,2.567 18.284,2.559L18.291,2.559C18.587,2.496 18.886,2.442 19.186,2.395C19.286,2.379 19.386,2.364 19.487,2.349L19.49,2.349C19.677,2.336 19.866,2.303 20.053,2.281C21.678,2.111 23.313,2.054 24.946,2.108C25.739,2.131 26.531,2.178 27.321,2.258C27.49,2.275 27.659,2.294 27.828,2.315C27.893,2.323 27.958,2.332 28.023,2.34L28.154,2.358C28.536,2.415 28.915,2.484 29.293,2.566C29.853,2.687 30.572,2.727 30.822,3.341C30.901,3.535 30.937,3.751 30.981,3.956L31.036,4.216C31.038,4.221 31.039,4.226 31.04,4.231C31.172,4.846 31.304,5.461 31.436,6.076C31.446,6.121 31.446,6.168 31.436,6.214C31.427,6.259 31.409,6.302 31.382,6.34C31.355,6.378 31.321,6.41 31.282,6.435C31.242,6.459 31.198,6.475 31.152,6.481L31.148,6.481L31.067,6.492L30.988,6.503C30.735,6.536 30.482,6.566 30.228,6.595C29.729,6.652 29.229,6.701 28.729,6.743C27.734,6.825 26.737,6.88 25.739,6.905C25.23,6.919 24.721,6.925 24.212,6.924C22.188,6.923 20.165,6.805 18.154,6.572C17.937,6.546 17.719,6.518 17.501,6.49C17.67,6.512 17.378,6.474 17.319,6.465C17.181,6.446 17.043,6.426 16.904,6.405C16.44,6.335 15.978,6.25 15.515,6.174C14.954,6.082 14.418,6.128 13.911,6.405C13.495,6.633 13.158,6.982 12.946,7.406C12.727,7.858 12.662,8.35 12.564,8.836C12.467,9.321 12.314,9.844 12.372,10.343C12.496,11.419 13.248,12.293 14.331,12.489C15.348,12.673 16.372,12.823 17.398,12.95C21.43,13.444 25.502,13.503 29.547,13.126C29.876,13.096 30.205,13.062 30.533,13.026C30.636,13.015 30.74,13.026 30.837,13.06C30.934,13.094 31.023,13.15 31.096,13.223C31.169,13.295 31.226,13.383 31.26,13.48C31.295,13.578 31.308,13.681 31.297,13.784L31.195,14.779C30.988,16.791 30.782,18.802 30.576,20.813C30.36,22.925 30.144,25.037 29.926,27.148C29.864,27.743 29.803,28.337 29.741,28.932C29.682,29.517 29.674,30.121 29.563,30.699C29.388,31.609 28.772,32.167 27.873,32.372C27.05,32.559 26.209,32.658 25.365,32.665C24.429,32.67 23.494,32.629 22.558,32.634C21.559,32.639 20.335,32.547 19.564,31.804C18.886,31.151 18.793,30.128 18.7,29.244C18.577,28.073 18.455,26.903 18.335,25.732L17.657,19.225L17.218,15.014C17.211,14.944 17.203,14.875 17.196,14.805C17.144,14.303 16.788,13.811 16.228,13.837C15.748,13.858 15.203,14.266 15.259,14.805L15.584,17.927L16.257,24.384C16.448,26.219 16.639,28.053 16.83,29.888C16.867,30.24 16.901,30.592 16.94,30.943C17.151,32.864 18.618,33.899 20.434,34.191C21.495,34.361 22.582,34.396 23.658,34.414C25.038,34.436 26.432,34.489 27.79,34.239C29.801,33.87 31.31,32.527 31.526,30.443C31.587,29.842 31.649,29.24 31.71,28.639C31.915,26.648 32.119,24.658 32.323,22.668L32.99,16.164L33.296,13.184C33.311,13.036 33.373,12.897 33.474,12.787C33.574,12.678 33.707,12.603 33.853,12.575C34.428,12.463 34.978,12.272 35.387,11.834C36.038,11.137 36.168,10.228 35.938,9.312ZM14.301,9.955C14.31,9.951 14.294,10.026 14.287,10.061C14.285,10.008 14.288,9.961 14.301,9.955ZM14.357,10.387C14.361,10.384 14.375,10.402 14.39,10.424C14.368,10.404 14.354,10.389 14.356,10.387L14.357,10.387ZM14.412,10.459C14.432,10.493 14.442,10.514 14.412,10.459ZM14.521,10.549L14.525,10.549C14.525,10.552 14.53,10.555 14.532,10.559C14.529,10.555 14.525,10.552 14.521,10.549ZM33.826,10.415C33.619,10.612 33.308,10.703 33,10.749C29.55,11.261 26.05,11.52 22.562,11.405C20.066,11.32 17.596,11.043 15.124,10.694C14.882,10.66 14.62,10.615 14.453,10.437C14.14,10.1 14.294,9.422 14.375,9.015C14.45,8.643 14.593,8.146 15.036,8.093C15.728,8.012 16.532,8.304 17.216,8.407C18.04,8.533 18.867,8.634 19.698,8.709C23.241,9.032 26.844,8.982 30.371,8.51C31.014,8.423 31.655,8.323 32.293,8.209C32.862,8.107 33.493,7.915 33.836,8.504C34.072,8.905 34.103,9.442 34.067,9.896C34.056,10.093 33.969,10.279 33.826,10.415Z" style="fill-rule:nonzero;"/>
            <path d="M13.082,4.324C13.001,4.361 12.921,4.402 12.841,4.446C12.84,4.446 12.839,4.447 12.838,4.447C12.024,4.894 11.364,5.578 10.949,6.408C10.945,6.416 10.941,6.424 10.937,6.433C10.635,7.056 10.511,7.725 10.376,8.395C10.375,8.396 10.375,8.397 10.375,8.398C10.234,9.105 10.07,9.873 10.154,10.6C10.357,12.352 11.447,13.806 13.044,14.433C13.02,14.629 13.017,14.831 13.039,15.036L13.364,18.158L14.037,24.615L14.61,30.121C14.647,30.477 14.682,30.832 14.721,31.187C15.052,34.196 17.235,35.938 20.08,36.395C20.08,36.395 20.08,36.395 20.081,36.395C21.246,36.582 22.439,36.626 23.621,36.646C23.621,36.646 23.622,36.646 23.622,36.646C25.149,36.67 26.691,36.711 28.193,36.435C31.215,35.88 33.422,33.804 33.746,30.673C33.747,30.672 33.747,30.67 33.747,30.668C33.808,30.068 33.87,29.467 33.931,28.866C34.136,26.875 34.34,24.886 34.544,22.896C34.544,22.896 35.211,16.392 35.211,16.392L35.411,14.439C36.01,14.199 36.557,13.852 37.019,13.358C38.195,12.098 38.516,10.477 38.116,8.823L38.118,8.828L37.939,7.926C37.632,6.377 36.815,5.012 35.296,4.378C35.231,3.994 35.168,3.611 35.101,3.227C35.101,3.225 35.1,3.223 35.1,3.221C34.983,2.559 34.847,1.826 34.546,1.216C34.019,0.137 33.008,-0.588 31.927,-1.007C31.918,-1.01 31.909,-1.014 31.899,-1.017C31.53,-1.155 31.154,-1.272 30.772,-1.367C29.213,-1.776 27.567,-1.938 25.954,-2.025C24.087,-2.128 22.214,-2.096 20.351,-1.932C20.349,-1.932 20.347,-1.931 20.345,-1.931C18.849,-1.795 17.277,-1.608 15.855,-1.09C15.093,-0.813 14.337,-0.43 13.758,0.158C12.681,1.253 12.37,2.936 13.082,4.324ZM35.938,9.312L35.749,8.361C35.58,7.507 35.195,6.7 34.319,6.392C34.038,6.293 33.719,6.251 33.504,6.046C33.289,5.842 33.225,5.525 33.175,5.23C33.083,4.69 32.996,4.15 32.902,3.61C32.82,3.147 32.755,2.626 32.543,2.201C32.266,1.63 31.692,1.296 31.121,1.075C30.828,0.966 30.53,0.873 30.227,0.798C28.8,0.422 27.3,0.283 25.832,0.204C24.071,0.107 22.304,0.137 20.547,0.292C19.239,0.411 17.861,0.555 16.618,1.008C16.163,1.173 15.695,1.372 15.35,1.723C14.926,2.154 14.788,2.821 15.097,3.359C15.317,3.741 15.69,4.011 16.085,4.189C16.6,4.419 17.138,4.594 17.689,4.711C19.225,5.051 20.816,5.184 22.385,5.241C24.124,5.311 25.867,5.254 27.597,5.071C28.025,5.024 28.453,4.967 28.879,4.901C29.382,4.824 29.704,4.168 29.556,3.71C29.379,3.163 28.903,2.951 28.364,3.033L28.07,3.077C27.887,3.1 27.705,3.122 27.523,3.142C27.146,3.182 26.768,3.216 26.39,3.241C25.542,3.3 24.692,3.328 23.842,3.329C23.008,3.329 22.172,3.305 21.339,3.251C20.959,3.226 20.58,3.194 20.202,3.156C20.03,3.138 19.858,3.119 19.687,3.097L19.488,3.072L19.318,3.047C18.973,2.995 18.627,2.935 18.284,2.863C18.25,2.855 18.219,2.836 18.197,2.808C18.175,2.781 18.163,2.746 18.163,2.711C18.163,2.676 18.175,2.641 18.197,2.614C18.219,2.586 18.25,2.567 18.284,2.559L18.291,2.559C18.587,2.496 18.886,2.442 19.186,2.395C19.286,2.379 19.386,2.364 19.487,2.349L19.49,2.349C19.677,2.336 19.866,2.303 20.053,2.281C21.678,2.111 23.313,2.054 24.946,2.108C25.739,2.131 26.531,2.178 27.321,2.258C27.49,2.275 27.659,2.294 27.828,2.315L28.154,2.358C28.536,2.415 28.915,2.484 29.293,2.566C29.853,2.687 30.572,2.727 30.822,3.341C30.901,3.535 30.937,3.751 30.981,3.956L31.036,4.216C31.038,4.221 31.039,4.226 31.04,4.231C31.172,4.846 31.304,5.461 31.436,6.076C31.446,6.121 31.446,6.168 31.436,6.214C31.427,6.259 31.409,6.302 31.382,6.34C31.355,6.378 31.321,6.41 31.282,6.435C31.242,6.459 31.198,6.475 31.152,6.481L31.148,6.481L30.988,6.503C30.735,6.536 30.482,6.566 30.228,6.595C29.729,6.652 29.229,6.701 28.729,6.743C27.734,6.825 26.737,6.88 25.739,6.905C25.23,6.919 24.721,6.925 24.212,6.924C22.188,6.923 20.165,6.805 18.154,6.572C17.937,6.546 17.719,6.518 17.501,6.49C17.67,6.512 17.378,6.474 17.319,6.465C17.181,6.446 17.043,6.426 16.904,6.405C16.44,6.335 15.978,6.25 15.515,6.174C14.954,6.082 14.418,6.128 13.911,6.405C13.495,6.633 13.158,6.982 12.946,7.406C12.727,7.858 12.662,8.35 12.564,8.836C12.467,9.321 12.314,9.844 12.372,10.343C12.496,11.419 13.248,12.293 14.331,12.489C15.348,12.673 16.372,12.823 17.398,12.95C21.43,13.444 25.502,13.503 29.547,13.126C29.876,13.096 30.205,13.062 30.533,13.026C30.636,13.015 30.74,13.026 30.837,13.06C30.934,13.094 31.023,13.15 31.096,13.223C31.169,13.295 31.226,13.383 31.26,13.48C31.295,13.578 31.308,13.681 31.297,13.784L31.195,14.779C30.988,16.791 30.782,18.802 30.576,20.813C30.36,22.925 30.144,25.037 29.926,27.148C29.864,27.743 29.803,28.337 29.741,28.932C29.682,29.517 29.674,30.121 29.563,30.699C29.388,31.609 28.772,32.167 27.873,32.372C27.05,32.559 26.209,32.658 25.365,32.665C24.429,32.67 23.494,32.629 22.558,32.634C21.559,32.639 20.335,32.547 19.564,31.804C18.886,31.151 18.793,30.128 18.7,29.244C18.577,28.073 18.455,26.903 18.335,25.732L17.657,19.225L17.218,15.014C17.211,14.944 17.203,14.875 17.196,14.805C17.144,14.303 16.788,13.811 16.228,13.837C15.748,13.858 15.203,14.266 15.259,14.805L15.584,17.927L16.257,24.384C16.448,26.219 16.639,28.053 16.83,29.888C16.867,30.24 16.901,30.592 16.94,30.943C17.151,32.864 18.618,33.899 20.434,34.191C21.495,34.361 22.582,34.396 23.658,34.414C25.038,34.436 26.432,34.489 27.79,34.239C29.801,33.87 31.31,32.527 31.526,30.443C31.587,29.842 31.649,29.24 31.71,28.639C31.915,26.648 32.119,24.658 32.323,22.668L32.99,16.164L33.296,13.184C33.311,13.036 33.373,12.897 33.474,12.787C33.574,12.678 33.707,12.603 33.853,12.575C34.428,12.463 34.978,12.272 35.387,11.834C36.038,11.137 36.168,10.228 35.938,9.312ZM19.504,15.408L19.877,18.994L20.556,25.504C20.676,26.674 20.797,27.842 20.92,29.01C20.95,29.295 20.976,29.598 21.036,29.892C21.058,29.998 21.034,30.121 21.113,30.196C21.113,30.196 21.113,30.196 21.113,30.197C21.245,30.323 21.444,30.323 21.627,30.351C21.939,30.397 22.256,30.403 22.546,30.402C23.481,30.397 24.414,30.438 25.349,30.433C26.032,30.427 26.711,30.347 27.377,30.195L27.385,30.193C27.469,29.706 27.47,29.199 27.52,28.708C27.52,28.706 27.52,28.703 27.521,28.701C27.583,28.106 27.644,27.513 27.706,26.918C27.923,24.808 28.139,22.697 28.355,20.586L28.885,15.423C25.761,15.668 22.624,15.663 19.504,15.408ZM12.535,11.678L12.555,11.705L12.518,11.652L12.535,11.678ZM12.444,11.54L12.461,11.566L12.428,11.509L12.444,11.54ZM33.826,10.415C33.619,10.612 33.308,10.703 33,10.749C29.55,11.261 26.05,11.52 22.562,11.405C20.066,11.32 17.596,11.043 15.124,10.694C14.882,10.66 14.62,10.615 14.453,10.437C14.14,10.1 14.294,9.422 14.375,9.015C14.45,8.643 14.593,8.146 15.036,8.093C15.728,8.012 16.532,8.304 17.216,8.407C18.04,8.533 18.867,8.634 19.698,8.709C23.241,9.032 26.844,8.982 30.371,8.51C31.014,8.423 31.655,8.323 32.293,8.209C32.862,8.107 33.493,7.915 33.836,8.504C34.072,8.905 34.103,9.442 34.067,9.896C34.056,10.093 33.969,10.279 33.826,10.415ZM12.364,11.394L12.377,11.418L12.347,11.358L12.364,11.394ZM12.294,11.241L12.311,11.28L12.278,11.198L12.294,11.241ZM12.235,11.084L12.255,11.136L12.22,11.032L12.235,11.084ZM12.189,10.923L12.205,10.978L12.177,10.866L12.189,10.923ZM12.155,10.762L12.166,10.813L12.158,10.77L12.155,10.76L12.155,10.762ZM14.521,10.549L14.525,10.549C14.525,10.552 14.53,10.555 14.532,10.559C14.529,10.555 14.525,10.552 14.521,10.549ZM14.412,10.459C14.417,10.468 14.421,10.475 14.425,10.481C14.428,10.487 14.43,10.491 14.431,10.492C14.432,10.495 14.427,10.487 14.412,10.459ZM14.357,10.387C14.361,10.384 14.375,10.402 14.39,10.424C14.368,10.404 14.354,10.389 14.356,10.387L14.357,10.387ZM14.301,9.955C14.305,9.953 14.304,9.971 14.3,9.993C14.296,10.016 14.29,10.043 14.287,10.061C14.285,10.008 14.288,9.961 14.301,9.955ZM15.889,8.774L15.985,8.864L15.892,8.772L15.889,8.774Z" style="fill:white;"/>
        </g>
        <path d="M54.199,64.366C62.956,66.292 67.972,59.275 74.023,61.269C73.61,65.443 72.051,82.199 71.591,87.023C70.876,90.375 68.549,89.784 63.813,89.943C59.34,89.758 57.072,90.314 56.404,87.023C55.9,82.149 54.535,68.122 54.199,64.366Z" style="fill:rgb(255,221,0);"/>
        <path d="M54.497,63.009C54.065,62.914 53.613,63.031 53.281,63.323C52.949,63.615 52.776,64.049 52.815,64.489C53.152,68.248 54.518,82.288 55.023,87.166C55.027,87.21 55.034,87.255 55.043,87.299C55.324,88.682 55.86,89.552 56.567,90.139C57.258,90.713 58.152,91.029 59.305,91.163C60.454,91.296 61.924,91.255 63.755,91.33C63.79,91.332 63.824,91.332 63.859,91.331C65.795,91.266 67.336,91.32 68.537,91.193C69.728,91.067 70.649,90.756 71.361,90.185C72.095,89.595 72.65,88.716 72.95,87.313C72.961,87.26 72.969,87.208 72.974,87.155C73.434,82.332 74.992,65.579 75.405,61.406C75.469,60.758 75.075,60.153 74.458,59.95C71.718,59.047 69.158,59.698 66.447,60.759C63.077,62.077 59.426,64.093 54.497,63.009ZM54.199,64.366C62.956,66.292 67.972,59.275 74.023,61.269C73.61,65.443 72.051,82.199 71.591,87.023C70.876,90.375 68.549,89.784 63.813,89.943C59.34,89.758 57.072,90.314 56.404,87.023C55.9,82.149 54.535,68.122 54.199,64.366Z" style="fill:white;"/>
    </g>
    <path d="M50.063,57.804L50.738,63.629C50.738,63.629 57.399,65.671 69.506,58.706C55.37,58.652 50.063,57.804 50.063,57.804Z" style="fill:white;"/>
</svg>
