<?xml version="1.0" encoding="UTF-8" standalone="no"?>
<!DOCTYPE svg PUBLIC "-//W3C//DTD SVG 1.1//EN" "http://www.w3.org/Graphics/SVG/1.1/DTD/svg11.dtd">
<svg width="100%" height="100%" viewBox="0 0 128 128" version="1.1" xmlns="http://www.w3.org/2000/svg" xmlns:xlink="http://www.w3.org/1999/xlink" xml:space="preserve" xmlns:serif="http://www.serif.com/" style="fill-rule:evenodd;clip-rule:evenodd;stroke-linejoin:round;stroke-miterlimit:2;">
    <g id="Artboard1" transform="matrix(2.48197,0,0,4.79337,31.465,37.6791)">
        <g id="Layer1">
        </g>
        <g transform="matrix(2.41743,0,0,1.1871,-6.23742,-4.46411)">
            <path d="M8,14.25L8.345,14.916C8.129,15.028 7.871,15.028 7.655,14.916L7.647,14.912L7.629,14.902C7.524,14.848 7.421,14.791 7.319,14.732C6.1,14.038 4.95,13.23 3.885,12.318C2.045,10.731 0,8.35 0,5.5C0,2.836 2.086,1 4.25,1C5.797,1 7.153,1.802 8,3.02C8.847,1.802 10.203,1 11.75,1C13.914,1 16,2.836 16,5.5C16,8.35 13.955,10.731 12.115,12.318C10.959,13.306 9.705,14.172 8.371,14.902L8.353,14.912L8.347,14.915L8.345,14.915L8,14.25ZM4.25,2.5C2.914,2.5 1.5,3.664 1.5,5.5C1.5,7.65 3.08,9.644 4.865,11.182C5.839,12.015 6.888,12.755 8,13.393C9.112,12.755 10.161,12.015 11.135,11.182C12.92,9.644 14.5,7.65 14.5,5.5C14.5,3.664 13.086,2.5 11.75,2.5C10.377,2.5 9.141,3.486 8.721,4.956C8.63,5.278 8.335,5.502 8,5.502C7.665,5.502 7.37,5.278 7.279,4.956C6.859,3.486 5.623,2.5 4.25,2.5Z" style="fill:rgb(219,97,162);fill-rule:nonzero;"/>
            <path d="M7.208,15.906L7.201,15.905C7.201,15.905 7.201,15.905 7.201,15.905C7.702,16.162 8.297,16.162 8.798,15.905L8.799,15.905L8.798,15.905L8.848,15.877L8.851,15.877L8.856,15.874C10.251,15.11 11.562,14.204 12.771,13.171C12.772,13.17 12.773,13.169 12.775,13.168C14.831,11.394 17.042,8.686 17.042,5.5C17.042,2.184 14.443,-0.098 11.75,-0.098C10.307,-0.098 8.999,0.47 8,1.4C7.001,0.47 5.693,-0.098 4.25,-0.098C1.557,-0.098 -1.042,2.184 -1.042,5.5C-1.042,8.686 1.169,11.394 3.225,13.168C3.226,13.169 3.227,13.17 3.228,13.171C4.343,14.125 5.546,14.971 6.821,15.697C6.936,15.763 7.052,15.827 7.171,15.888L7.208,15.906ZM7.647,16.01L7.608,16L7.601,16L7.647,16.01ZM8.255,15.78C8.282,15.854 8.305,15.914 8.321,15.955C8.289,15.925 8.244,15.881 8.191,15.826C8.213,15.812 8.234,15.796 8.255,15.78ZM8,14.25L8.345,14.916C8.129,15.028 7.871,15.028 7.655,14.916L7.629,14.902C7.524,14.848 7.421,14.791 7.319,14.732C6.1,14.038 4.95,13.23 3.885,12.318C2.045,10.731 0,8.35 0,5.5C0,2.836 2.086,1 4.25,1C5.797,1 7.153,1.802 8,3.02C8.847,1.802 10.203,1 11.75,1C13.914,1 16,2.836 16,5.5C16,8.35 13.955,10.731 12.115,12.318C10.959,13.306 9.705,14.172 8.371,14.902L8.347,14.915L8.345,14.915L8,14.25ZM4.25,2.5C2.914,2.5 1.5,3.664 1.5,5.5C1.5,7.65 3.08,9.644 4.865,11.182C5.839,12.015 6.888,12.755 8,13.393C9.112,12.755 10.161,12.015 11.135,11.182C12.92,9.644 14.5,7.65 14.5,5.5C14.5,3.664 13.086,2.5 11.75,2.5C10.377,2.5 9.141,3.486 8.721,4.956C8.63,5.278 8.335,5.502 8,5.502C7.665,5.502 7.37,5.278 7.279,4.956C6.859,3.486 5.623,2.5 4.25,2.5ZM4.25,3.598C5.177,3.598 5.998,4.281 6.282,5.273C6.498,6.042 7.196,6.6 8,6.6C8.804,6.6 9.502,6.042 9.72,5.268C10.002,4.281 10.823,3.598 11.75,3.598C12.589,3.598 13.458,4.347 13.458,5.5C13.458,7.35 12.013,9.007 10.477,10.33C9.7,10.995 8.871,11.598 8,12.133C7.129,11.598 6.3,10.995 5.523,10.33C3.987,9.007 2.542,7.35 2.542,5.5C2.542,4.347 3.411,3.598 4.25,3.598Z" style="fill:rgb(254,255,255);"/>
        </g>
    </g>
</svg>
